<svg xmlns="http://www.w3.org/2000/svg" xmlns:xlink="http://www.w3.org/1999/xlink" viewBox="0 0 800 800"><defs><linearGradient id="Degradado_sin_nombre_29" x2="800" y2="800" gradientUnits="userSpaceOnUse"><stop offset="0" stop-color="#fff"/><stop offset="1" stop-color="#e5e5e5"/></linearGradient></defs><g id="BACKGROUND" opacity="0.6"><rect width="800" height="800" opacity="0.8" fill="url(#Degradado_sin_nombre_29)"/></g><g id="OBJECTS"><path d="M691.3,261.08a71.81,71.81,0,1,0-71.81,71.81A71.82,71.82,0,0,0,691.3,261.08Z" fill="#f54748"/><path d="M661.16,239.53a35.81,35.81,0,0,1-9.17,2.34,17.2,17.2,0,0,0,7.44-8.83.27.27,0,0,0-.39-.32,35,35,0,0,1-10.46,3.82,17.52,17.52,0,0,0-12.74-5.43,17.19,17.19,0,0,0-17,21.1A49.86,49.86,0,0,1,583,234.36a.1.1,0,0,0-.16,0A17,17,0,0,0,588,257a.1.1,0,0,1-.06.19,17.49,17.49,0,0,1-7.39-2.05c-.07,0-.14,0-.14.08a23.41,23.41,0,0,0,1.18,6.28,17.63,17.63,0,0,0,12.82,10.63,18.43,18.43,0,0,1-4.61.6,17.19,17.19,0,0,1-3.13-.29.1.1,0,0,0-.11.13,17.47,17.47,0,0,0,16,11.76.11.11,0,0,1,.06.19,35.28,35.28,0,0,1-21.44,7.18,38.24,38.24,0,0,1-4.16-.23,50,50,0,0,0,26.75,7.71c13.58,0,24.55-4.68,32.7-11.8a50.47,50.47,0,0,0,15.77-26.71,47.28,47.28,0,0,0,1.19-10.37c0-.73,0-1.48-.05-2.22a35,35,0,0,0,8.17-8.13A.27.27,0,0,0,661.16,239.53Z" fill="#fff"/></g></svg>