<svg xmlns="http://www.w3.org/2000/svg" xmlns:xlink="http://www.w3.org/1999/xlink" viewBox="0 0 800 800"><defs><linearGradient id="Degradado_sin_nombre_29" x2="800" y2="800" gradientUnits="userSpaceOnUse"><stop offset="0" stop-color="#fff"/><stop offset="1" stop-color="#e5e5e5"/></linearGradient></defs><g id="BACKGROUND" opacity="0.6"><rect width="800" height="800" opacity="0.8" fill="url(#Degradado_sin_nombre_29)"/></g><g id="OBJECTS"><path d="M473.59,261.08a71.81,71.81,0,1,0-71.8,71.81A71.81,71.81,0,0,0,473.59,261.08Z" fill="#f54748"/><path d="M445,255.14a42.42,42.42,0,0,0-84.77-.79c0,.61,0,1.23,0,1.85a41.69,41.69,0,0,0,5.78,21.23.61.61,0,0,1,.05.51l-7.51,22.2a.38.38,0,0,0,.48.49l23.12-7.35a.64.64,0,0,1,.47,0A42.47,42.47,0,0,0,445,256.2C445,255.9,445,255.14,445,255.14Zm-71,20a33.71,33.71,0,0,1-5.8-19c0-1.08.05-2.17.16-3.31a34.46,34.46,0,0,1,68.6.64c.08,1,.12,1.89.12,2.67a34.47,34.47,0,0,1-49,31c-1.26-.59-3.66-2-4.42-2.48a.61.61,0,0,0-.51-.06l-11.63,3.7a.34.34,0,0,1-.43-.43l3.76-11.08a.61.61,0,0,0-.08-.57C374.46,275.93,374.08,275.41,373.92,275.17Z" fill="#fcfcfc"/><path d="M422.72,265.57a9.3,9.3,0,0,0-2.09-1.3c-.73-.36-6-3-7-3.32-.85-.31-1.82-.65-2.69.64-.66,1-2.59,3.23-3.22,3.94-.44.5-.84.66-1.82.17a35.43,35.43,0,0,1-8.16-5,29.78,29.78,0,0,1-5.62-6.95c-.45-.76-.16-1.11.39-1.67.34-.33,1.84-2.14,2-2.32.24-.36.66-1.23.66-1.23a2.21,2.21,0,0,0-.07-2.09c-.18-.33-2.9-6.89-3.16-7.51-.78-1.85-1.6-1.95-2.4-1.9-.38,0-4,.05-5.14,1.3l-.2.21a11.42,11.42,0,0,0-3.47,8.48,13.16,13.16,0,0,0,.54,3.55,23.27,23.27,0,0,0,3.71,7.16c0,.05,2.67,3.71,4,5.23a36.22,36.22,0,0,0,13.64,10.21c6.07,2.37,8.67,2.91,10.14,2.91.64,0,2-.33,2.29-.35,1.86-.17,6.27-2.47,7.19-5.05S423.05,266.12,422.72,265.57Z" fill="#fff"/></g></svg>