<svg id="Слой_1" data-name="Слой 1" xmlns="http://www.w3.org/2000/svg" viewBox="0 0 650 622.6"><path d="M1970.38,1941.1a32.32,32.32,0,0,0-21-21.85,32.2,32.2,0,0,0-6.79-33.94,32.33,32.33,0,0,0-13.89-57.15,32.25,32.25,0,0,0-13.66-26.85,32.33,32.33,0,0,0-41.56-48.65,32.33,32.33,0,0,0-53.83-1,32.3,32.3,0,0,0-52,5.8,32.31,32.31,0,0,0-45.89,39.08,32.32,32.32,0,0,0-6.45,64.27,32.33,32.33,0,0,0,17.41,56.93c-9.52,16.8-1.78,39.54,14.39,48.2a32.34,32.34,0,0,0-15.89,37.43c7.61,26.62,27.56,26.31,34.28,26.9a32.29,32.29,0,0,0,26,48.89,32.3,32.3,0,0,0,61.44,5,32.32,32.32,0,0,0,55.7-5.7,32.33,32.33,0,0,0,45.43-44,32.29,32.29,0,0,0,6.67-60.37A32.3,32.3,0,0,0,1970.38,1941.1Z" transform="translate(-1687.5 -1694.28)" fill="#f6c914"/><path d="M2107.29,1942.54a32.31,32.31,0,0,0-13.09-27.37,32.18,32.18,0,0,0,4.23-34.35,32.32,32.32,0,0,0,4.8-58.61,32.25,32.25,0,0,0-4.52-29.79,32.33,32.33,0,0,0-24.14-59.26,32.33,32.33,0,0,0-50.8-17.84,32.3,32.3,0,0,0-51.14-10.84,32.31,32.31,0,0,0-55.86,22.66,32.33,32.33,0,0,0-26.35,59,32.32,32.32,0,0,0-1.38,59.51c-14.31,12.95-14.12,37-1.5,50.28a32.35,32.35,0,0,0-26.86,30.53c-1.15,27.66,17.88,33.65,24.07,36.32a32.28,32.28,0,0,0,9.33,54.59,32.3,32.3,0,0,0,56.74,24.1,32.31,32.31,0,0,0,54.66,12.11,32.33,32.33,0,0,0,57-27.48,32.29,32.29,0,0,0,25.32-55.22A32.3,32.3,0,0,0,2107.29,1942.54Z" transform="translate(-1687.5 -1694.28)" fill="#f7b318"/><path d="M2280.16,1931.69a32.3,32.3,0,0,0-16.37-25.53,32.18,32.18,0,0,0,0-34.61,32.32,32.32,0,0,0-2.49-58.76,32.21,32.21,0,0,0-8.16-29,32.32,32.32,0,0,0-31.28-55.81,32.34,32.34,0,0,0-52.62-11.43,32.28,32.28,0,0,0-52.08-4.44,32.31,32.31,0,0,0-52.64,29.38,32.33,32.33,0,0,0-18.85,61.79,32.32,32.32,0,0,0,6,59.22c-12.61,14.63-9.46,38.44,4.72,50.09a32.33,32.33,0,0,0-22.88,33.61c2.27,27.6,21.9,31.18,28.38,33.07a32.27,32.27,0,0,0,16,53,32.3,32.3,0,0,0,59.29,16.9,32.3,32.3,0,0,0,55.73,5.27,32.33,32.33,0,0,0,53.14-34.31,32.29,32.29,0,0,0,18.31-57.92A32.31,32.31,0,0,0,2280.16,1931.69Z" transform="translate(-1687.5 -1694.28)" fill="#f6c914"/><path d="M2315.65,2037.92a32.3,32.3,0,0,0-10.83-28.33,32.2,32.2,0,0,0,7-33.9,32.31,32.31,0,0,0,9.51-58,32.22,32.22,0,0,0-2.09-30.05,32.33,32.33,0,0,0-19.28-61,32.35,32.35,0,0,0-49.2-21.89,32.29,32.29,0,0,0-50.09-14.93,32.31,32.31,0,0,0-57.51,18.07,32.32,32.32,0,0,0-31,56.66,32.31,32.31,0,0,0-6.18,59.2c-15.32,11.75-17.07,35.71-5.56,50a32.34,32.34,0,0,0-29.24,28.26c-3.38,27.48,15.1,35,21.06,38.15a32.28,32.28,0,0,0,4.88,55.15,32.3,32.3,0,0,0,54.62,28.61,32.31,32.31,0,0,0,53.5,16.49,32.33,32.33,0,0,0,59-22.8,32.28,32.28,0,0,0,29.7-53A32.29,32.29,0,0,0,2315.65,2037.92Z" transform="translate(-1687.5 -1694.28)" fill="#f7b318"/><path d="M1999.65,2110.13a32.33,32.33,0,0,0,12.93-27.44,32.2,32.2,0,0,0,29.29-18.42,32.33,32.33,0,0,0,48.45-33.34,32.23,32.23,0,0,0,20.23-22.33,32.33,32.33,0,0,0,30.66-56.16,32.35,32.35,0,0,0-18.29-50.65,32.28,32.28,0,0,0-23.92-46.47,32.31,32.31,0,0,0-52.86-29,32.33,32.33,0,0,0-62.36,16.87,32.31,32.31,0,0,0-47,36.54c-19.09-2.9-37.59,12.42-39.92,30.62a32.35,32.35,0,0,0-40.64-1.52c-22.16,16.59-14.77,35.12-12.92,41.62a32.28,32.28,0,0,0-36.41,41.72,32.3,32.3,0,0,0,17.19,59.21,32.31,32.31,0,0,0,25.16,50,32.33,32.33,0,0,0,57.31,26.77,32.29,32.29,0,0,0,58.79-15.27A32.32,32.32,0,0,0,1999.65,2110.13Z" transform="translate(-1687.5 -1694.28)" fill="#fde712"/><path d="M1749.34,1848a7.74,7.74,0,1,1-7.74-7.74A7.74,7.74,0,0,1,1749.34,1848Z" transform="translate(-1687.5 -1694.28)" fill="#f7b318"/><circle cx="86.38" cy="100.93" r="13.34" fill="#f7b318"/><circle cx="137.37" cy="118.21" r="8.78" fill="#f7b318"/><path d="M1798.35,1920.33a12.24,12.24,0,1,1-12.23-12.23A12.23,12.23,0,0,1,1798.35,1920.33Z" transform="translate(-1687.5 -1694.28)" fill="#f7b318"/><path d="M1987,1944.63a12.06,12.06,0,1,1-12.06-12.06A12.06,12.06,0,0,1,1987,1944.63Z" transform="translate(-1687.5 -1694.28)" fill="#f6c914"/><path d="M2064.35,1938.62a6.06,6.06,0,1,1-6.06-6A6.06,6.06,0,0,1,2064.35,1938.62Z" transform="translate(-1687.5 -1694.28)" fill="#f6c914"/><path d="M2083.28,1890.77a6.27,6.27,0,1,1-6.27-6.27A6.27,6.27,0,0,1,2083.28,1890.77Z" transform="translate(-1687.5 -1694.28)" fill="#f6c914"/><path d="M2108,1937.55a5,5,0,1,1-5-5A5,5,0,0,1,2108,1937.55Z" transform="translate(-1687.5 -1694.28)" fill="#f6c914"/><path d="M2331,1956.69c-10.61,77-42.28,249.42-86.86,360.19H1786.57c-22.85-56.88-40.06-120.33-52.7-179.79-10.88-51.2-19.35-105.83-22.42-134.37Z" transform="translate(-1687.5 -1694.28)" fill="#dce9ec"/><path d="M1787.23,1997.08v39.06h-71.39c-3-21-4.39-33.42-4.39-33.42Z" transform="translate(-1687.5 -1694.28)" fill="#53c5d5"/><rect x="99.72" y="341.86" width="100.96" height="100.96" fill="#53c5d5"/><polygon points="301.64 287.79 301.64 341.86 200.68 341.86 200.68 295.31 301.64 287.79" fill="#53c5d5"/><rect x="301.64" y="341.86" width="100.96" height="100.96" fill="#53c5d5"/><rect x="200.68" y="442.82" width="100.96" height="100.96" fill="#53c5d5"/><polygon points="503.55 272.81 503.55 341.86 402.59 341.86 402.59 280.3 503.55 272.81" fill="#53c5d5"/><rect x="402.6" y="442.82" width="100.96" height="100.96" fill="#53c5d5"/><rect x="503.56" y="341.86" width="100.96" height="100.96" fill="#53c5d5"/><path d="M2331,1956.69s-4.41,32-13,79.45H2292v-76.57Z" transform="translate(-1687.5 -1694.28)" fill="#53c5d5"/><path d="M2271.16,2238.05c-8.2,27.61-17.24,54.4-27.07,78.83h-53v-78.83Z" transform="translate(-1687.5 -1694.28)" fill="#53c5d5"/><rect x="99.73" y="543.77" width="100.95" height="78.84" fill="#53c5d5"/><path d="M1787.23,2137.09v101h-27.89c-10.38-34.88-18.78-69.46-25.47-101Z" transform="translate(-1687.5 -1694.28)" fill="#53c5d5"/><rect x="301.64" y="543.77" width="100.95" height="78.84" fill="#53c5d5"/><path d="M2297.33,2137.1H2292v22.56Q2294.77,2148.35,2297.33,2137.1Z" transform="translate(-1687.5 -1694.28)" fill="#53c5d5"/></svg>