<svg id="Слой_1" data-name="Слой 1" xmlns="http://www.w3.org/2000/svg" viewBox="0 0 650 726.28"><polygon points="80.12 28.14 30.73 78.68 0 69.56 68.66 0 80.12 28.14" fill="#9dd2e0"/><polygon points="189.34 28.14 80.12 28.14 69.22 0.52 209.45 0.52 189.34 28.14" fill="#7dc6d7"/><polygon points="324.7 421.51 189.34 28.14 209.45 0.52 352.27 412.9 324.7 421.51" fill="#3dbfcd"/><polygon points="399.4 167.76 379.4 500.16 262.73 500.16 262.73 167.76 399.4 167.76" fill="#7dc6d7"/><polygon points="262.73 167.76 262.73 500.16 146.06 500.16 126.06 167.76 262.73 167.76" fill="#9dd2e0"/><polygon points="411.07 136.59 114.39 136.59 110.28 167.76 415.19 167.76 411.07 136.59" fill="#3dbfcd"/><polygon points="384.54 414.76 140.93 414.76 130.9 248.28 394.64 248.28 384.54 414.76" fill="#53c5d5"/><path d="M5728.47,725.13c0,34.24-29.15,62-65.12,62s-65.11-27.77-65.11-62,29.15-62,65.11-62S5728.47,690.88,5728.47,725.13Z" transform="translate(-5400 -393.61)" fill="#fff"/><rect x="100.25" y="0.52" width="13.26" height="27.62" fill="#9dd2e0"/><rect x="126.06" y="0.52" width="13.27" height="27.62" fill="#9dd2e0"/><rect x="151.88" y="0.52" width="13.27" height="27.62" fill="#9dd2e0"/><rect x="423.56" y="273.85" width="155.59" height="165.86" fill="#f6c914"/><rect x="401.18" y="273.85" width="40.67" height="215.58" fill="#f68c1e"/><rect x="453.72" y="273.85" width="40.67" height="215.58" fill="#f68c1e"/><rect x="506.27" y="273.85" width="40.67" height="215.58" fill="#f68c1e"/><rect x="558.81" y="273.85" width="40.67" height="215.58" fill="#f68c1e"/><rect x="5891.61" y="756.2" width="215.59" height="40.68" transform="translate(-1876.19 5902.65) rotate(-73.22)" fill="#f6c914"/><path d="M6042.57,756.59l-19.07,255.48H5902V814.69h43.09a43.21,43.21,0,0,0,43.22-43.22V756.59Z" transform="translate(-5400 -393.61)" fill="#d61f27"/><rect x="5781.55" y="668.74" width="40.67" height="215.59" transform="translate(-5377.1 1314.72) rotate(-16.78)" fill="#f6c914"/><path d="M5902,814.69v197.38H5780.42l-19.07-255.48h54.31v14.88a43.19,43.19,0,0,0,43.21,43.22Z" transform="translate(-5400 -393.61)" fill="#ed3024"/><path d="M6033,884.32h-87.37a47.58,47.58,0,0,0-87.42,0h-87.37l2.81,37.53h84.56a47.56,47.56,0,0,0,87.42,0h84.55Z" transform="translate(-5400 -393.61)" fill="#9dd2e0"/><path d="M5926.13,903.1A24.17,24.17,0,1,1,5902,878.93,24.16,24.16,0,0,1,5926.13,903.1Z" transform="translate(-5400 -393.61)" fill="#ed3024"/><rect x="174.32" y="118.49" width="176.83" height="18.1" fill="#7dc6d7"/><path d="M5636.53,932v37H5448.48c-24.58,0-24.52-37,0-37Z" transform="translate(-5400 -393.61)" fill="#683313"/><path d="M5824.6,969H5636.53V932H5824.6C5849.16,932,5849.06,969,5824.6,969Z" transform="translate(-5400 -393.61)" fill="#4e2410"/><path d="M5636.53,993.18v37H5448.48c-24.58,0-24.52-37,0-37Z" transform="translate(-5400 -393.61)" fill="#683313"/><path d="M5824.6,1030.21H5636.53v-37H5824.6C5849.16,993.18,5849.06,1030.21,5824.6,1030.21Z" transform="translate(-5400 -393.61)" fill="#4e2410"/><path d="M5844.7,1073.27v16.34a26.51,26.51,0,0,1-26.53,26.54H5454.09a26.51,26.51,0,0,1-26.54-26.54v-16.34Z" transform="translate(-5400 -393.61)" fill="#ed7d22"/><path d="M5810.92,932H5462.13c-19.09,0-17.72-22.63,0-22.63h348.79C5828.69,909.35,5830,932,5810.92,932Z" transform="translate(-5400 -393.61)" fill="#c6cc2d"/><path d="M5810.81,991.65H5462c-19,0-17.78-22.63,0-22.63h348.79C5828.59,969,5829.85,991.65,5810.81,991.65Z" transform="translate(-5400 -393.61)" fill="#fde712"/><path d="M5829.3,909.35H5636.51V768.54c102.19,0,193.75,50.22,208.26,121.76A15.82,15.82,0,0,1,5829.3,909.35Z" transform="translate(-5400 -393.61)" fill="#ed7d22"/><path d="M5636.51,768.54V909.35H5443.72a15.76,15.76,0,0,1-15.42-19.05C5442.16,821.58,5530.08,768.54,5636.51,768.54Z" transform="translate(-5400 -393.61)" fill="#f6c914"/><path d="M5486.52,881.19a11.09,11.09,0,1,1-11.09-11.09A11.09,11.09,0,0,1,5486.52,881.19Z" transform="translate(-5400 -393.61)" fill="#f9ef75"/><path d="M5539.08,881.19A11.09,11.09,0,1,1,5528,870.1,11.09,11.09,0,0,1,5539.08,881.19Z" transform="translate(-5400 -393.61)" fill="#f9ef75"/><path d="M5591.64,881.19a11.09,11.09,0,1,1-11.1-11.09A11.09,11.09,0,0,1,5591.64,881.19Z" transform="translate(-5400 -393.61)" fill="#f9ef75"/><path d="M5644.2,881.19a11.09,11.09,0,1,1-11.09-11.09A11.09,11.09,0,0,1,5644.2,881.19Z" transform="translate(-5400 -393.61)" fill="#f9ef75"/><path d="M5696.76,881.19a11.09,11.09,0,1,1-11.09-11.09A11.08,11.08,0,0,1,5696.76,881.19Z" transform="translate(-5400 -393.61)" fill="#f9ef75"/><path d="M5749.33,881.19a11.09,11.09,0,1,1-11.09-11.09A11.09,11.09,0,0,1,5749.33,881.19Z" transform="translate(-5400 -393.61)" fill="#f9ef75"/><path d="M5801.89,881.19a11.09,11.09,0,1,1-11.09-11.09A11.09,11.09,0,0,1,5801.89,881.19Z" transform="translate(-5400 -393.61)" fill="#f9ef75"/><path d="M5515.32,847.94a11.09,11.09,0,1,1-11.09-11.11A11.09,11.09,0,0,1,5515.32,847.94Z" transform="translate(-5400 -393.61)" fill="#f9ef75"/><path d="M5567.88,847.94a11.09,11.09,0,1,1-11.09-11.11A11.08,11.08,0,0,1,5567.88,847.94Z" transform="translate(-5400 -393.61)" fill="#f9ef75"/><path d="M5620.44,847.94a11.09,11.09,0,1,1-11.08-11.11A11.08,11.08,0,0,1,5620.44,847.94Z" transform="translate(-5400 -393.61)" fill="#f9ef75"/><path d="M5673,847.94a11.1,11.1,0,1,1-11.09-11.11A11.09,11.09,0,0,1,5673,847.94Z" transform="translate(-5400 -393.61)" fill="#f9ef75"/><path d="M5725.57,847.94a11.1,11.1,0,1,1-11.1-11.11A11.08,11.08,0,0,1,5725.57,847.94Z" transform="translate(-5400 -393.61)" fill="#f9ef75"/><path d="M5541.61,809.84a11.1,11.1,0,1,1-11.1-11.09A11.09,11.09,0,0,1,5541.61,809.84Z" transform="translate(-5400 -393.61)" fill="#f9ef75"/><path d="M5594.16,809.84a11.09,11.09,0,1,1-11.08-11.09A11.09,11.09,0,0,1,5594.16,809.84Z" transform="translate(-5400 -393.61)" fill="#f9ef75"/><path d="M5646.72,809.84a11.09,11.09,0,1,1-11.09-11.09A11.08,11.08,0,0,1,5646.72,809.84Z" transform="translate(-5400 -393.61)" fill="#f9ef75"/><path d="M5699.29,809.84a11.09,11.09,0,1,1-11.09-11.09A11.09,11.09,0,0,1,5699.29,809.84Z" transform="translate(-5400 -393.61)" fill="#f9ef75"/><path d="M5751.89,809.84a11.09,11.09,0,1,1-11.08-11.09A11.08,11.08,0,0,1,5751.89,809.84Z" transform="translate(-5400 -393.61)" fill="#f9ef75"/><path d="M5778.13,847.94A11.09,11.09,0,1,1,5767,836.83,11.09,11.09,0,0,1,5778.13,847.94Z" transform="translate(-5400 -393.61)" fill="#f9ef75"/><path d="M5844.7,1056.91v16.36H5427.55v-16.36a26.53,26.53,0,0,1,26.54-26.53h364.08A26.53,26.53,0,0,1,5844.7,1056.91Z" transform="translate(-5400 -393.61)" fill="#e76624"/><path d="M5765.2,975.09a42.72,42.72,0,0,0-20.63,5.41,25.82,25.82,0,0,1-24.55,0,42.1,42.1,0,0,0-41.29,0,25.82,25.82,0,0,1-24.55,0,42.06,42.06,0,0,0-41.27,0,25.84,25.84,0,0,1-24.56,0,42.08,42.08,0,0,0-41.28,0,25.84,25.84,0,0,1-24.56,0,42.72,42.72,0,0,0-20.63-5.41c-15.93,0-30.28,9.14-40.32,23.71a6,6,0,0,0,5,9.4c.18,0,18.41-14.74,35.31-14.74a43.29,43.29,0,0,1,24.28,7.62,15.44,15.44,0,0,0,17.27,0,42.53,42.53,0,0,1,48.61,0,15.33,15.33,0,0,0,17.19,0,42.51,42.51,0,0,1,48.6,0,15.41,15.41,0,0,0,17.27,0,42.54,42.54,0,0,1,48.56,0,15.42,15.42,0,0,0,17.21.06l.23-.16c31.57-21,54.45,7.23,59.41,7.23h0a6,6,0,0,0,5-9.4c-10-14.57-24.39-23.71-40.32-23.71Z" transform="translate(-5400 -393.61)" fill="#ed3024"/><path d="M5597.42,1030.38a67.39,67.39,0,0,1-127.47,0Z" transform="translate(-5400 -393.61)" fill="#b0d13b"/><path d="M5581.71,1030.38a52.77,52.77,0,0,1-96.05,0Z" transform="translate(-5400 -393.61)" fill="#dbe12b"/><path d="M5800.26,1080.05c-8.9,3.28-11.63,9.52-13.57,18.46-5.34,24.75-44.94,29.68-53.33,5.93-3.54-10-1.19-34.79-15.88-35.16-33.6-.84-73.28,30.7-76.1-38.9h154.81C5804.18,1041.54,5820,1072.79,5800.26,1080.05Z" transform="translate(-5400 -393.61)" fill="#b0d13b"/><path d="M5762.15,1088.65c-8.85-2.5-16.35-11.44-25-13.92-13.62-4-30.41,18.45-46-5.21h0c-5.58-8.36-8.06-19.32-20.5-19-2.16,0-56.65,12.46-53.57-20.18a.5.5,0,0,0,0-.17h160.36l.13.17C5802.45,1065.34,5782.9,1094.55,5762.15,1088.65Z" transform="translate(-5400 -393.61)" fill="#dbe12b"/><path d="M5471.25,981.65c8.89,3.28,11.63,9.53,13.57,18.47,5.34,24.75,44.93,29.68,53.33,5.92,3.54-10,1.19-34.78,15.88-35.16,33.6-.84,73.27,30.7,76.1-38.89H5475.32C5467.33,943.14,5451.56,974.4,5471.25,981.65Z" transform="translate(-5400 -393.61)" fill="#b0d13b"/><path d="M5509.36,990.25c8.85-2.5,16.34-11.44,25.05-13.92,13.62-4,30.41,18.45,46-5.21h0c5.58-8.36,8.06-19.32,20.5-19,2.15,0,56.64,12.45,53.57-20.19a.47.47,0,0,1,0-.17H5494.08c0,.07-.08.11-.12.17C5469.06,966.94,5488.61,996.16,5509.36,990.25Z" transform="translate(-5400 -393.61)" fill="#dbe12b"/><path d="M5662.76,909.59h128.78C5764.92,971.59,5667.64,966,5662.76,909.59Z" transform="translate(-5400 -393.61)" fill="#ca2027"/><path d="M5683.49,909.59h88.1C5749.68,944,5693.76,941.28,5683.49,909.59Z" transform="translate(-5400 -393.61)" fill="#ef5123"/><path d="M5713.69,909.72a.61.61,0,0,1,0-.13h12c-.79,6.95-5.55,14.19-9.6,13.07C5713,921.74,5711.88,916,5713.69,909.72Z" transform="translate(-5400 -393.61)" fill="#f7e8c4"/><path d="M5737.9,909.59h12.31c1.33,5.41.42,10.17-2.35,11.12C5744.42,921.9,5739.67,916.66,5737.9,909.59Z" transform="translate(-5400 -393.61)" fill="#f7e8c4"/></svg>