<svg id="Слой_1" data-name="Слой 1" xmlns="http://www.w3.org/2000/svg" viewBox="0 0 650 733.5"><polygon points="136.2 27.43 29.94 136.15 0 127.25 125.04 0 136.2 27.43" fill="#dbdcd9"/><polygon points="242.65 27.43 136.2 27.43 125.57 0.51 262.25 0.51 242.65 27.43" fill="#b2b1b0"/><polygon points="374.58 410.82 242.65 27.43 262.25 0.51 401.45 402.43 374.58 410.82" fill="#8b9d9c"/><polygon points="632.69 240.21 603 733.5 429.86 733.5 429.86 240.21 632.69 240.21" fill="#b2b1b0"/><polygon points="429.86 240.21 429.86 733.5 256.72 733.5 227.03 240.21 429.86 240.21" fill="#cdcdcd"/><rect x="209.72" y="208.2" width="440.28" height="32.01" fill="#cdcdcd"/><polygon points="610.63 606.76 249.1 606.76 234.22 359.71 625.6 359.71 610.63 606.76" fill="#d61f27"/><path d="M987,2122.08c0,55.86-47.57,101.17-106.26,101.17s-106.25-45.31-106.25-101.17,47.58-101.2,106.25-101.2S987,2066.19,987,2122.08Z" transform="translate(-450 -1638.83)" fill="#f6c914"/><polygon points="430.77 409.9 455.81 458.2 511.75 465.93 471.27 503.5 480.83 556.57 430.77 531.53 380.75 556.57 390.3 503.5 349.81 465.93 405.76 458.2 430.77 409.9" fill="#e4e4e4"/><rect x="155.81" y="0.51" width="12.93" height="26.92" fill="#dbdcd9"/><rect x="180.98" y="0.51" width="12.93" height="26.92" fill="#dbdcd9"/><rect x="206.14" y="0.51" width="12.93" height="26.92" fill="#dbdcd9"/></svg>