<svg id="Слой_1" data-name="Слой 1" xmlns="http://www.w3.org/2000/svg" viewBox="0 0 650 648.1"><polygon points="187.22 162.3 622.3 0 630.26 22.09 193.41 179.49 187.22 162.3" fill="#f8d898"/><polygon points="522.07 37.4 622.71 1.13 630.26 22.09 529.63 58.34 522.07 37.4" fill="#ed3024"/><polygon points="185.44 226.01 649.65 213.91 650 237.38 185.71 244.27 185.44 226.01" fill="#f8d898"/><rect x="3467.87" y="1897.43" width="106.97" height="22.28" transform="translate(-2952.94 -1629.06) rotate(-0.85)" fill="#ed3024"/><path d="M3210,1874.05a32.44,32.44,0,1,1-32.44-32.44A32.44,32.44,0,0,1,3210,1874.05Z" transform="translate(-2925 -1681.53)" fill="#f6c914"/><path d="M3253,2035.86a32.45,32.45,0,1,1-32.44-32.45A32.45,32.45,0,0,1,3253,2035.86Z" transform="translate(-2925 -1681.53)" fill="#ed3024"/><path d="M3225.09,2057.47a32.45,32.45,0,1,1-32.45-32.45A32.44,32.44,0,0,1,3225.09,2057.47Z" transform="translate(-2925 -1681.53)" fill="#ef5123"/><path d="M3251.09,2137.06c-8.38-5.45-35.14-16.63-27.45-100.67l39.85-17.69,71.3,109.63Z" transform="translate(-2925 -1681.53)" fill="#9cc03b"/><path d="M3076.67,2132.77a59.33,59.33,0,0,1-7.82-13.84l18-7.14c8.35,21,34.66,34.15,52.87,15.69,16.62-16.86-5.47-74,29.32-106.28s109.22,2.71,54.89,64.25c-7.24,8.19-24.18,27.38-26.72,44.09-.55,3.59,5,37.76,32.74-2.58,11.82-17.16,32.11-53.15,60.4-56.74,11.39-1.44,22.33,2.48,32.52,11.68l-13,14.36c-5.89-5.31-11.49-7.55-17.11-6.84-18.53,2.35-37.29,34.56-46.9,48.52-37.63,54.65-72.09,16.77-67.81-11.32,3-19.68,17.52-38.33,31.34-54,37.86-42.88-10.48-52.79-27.21-37.26-28.83,26.76-2.94,79.56-28.71,105.68C3130.14,2164.74,3095.68,2157.92,3076.67,2132.77Z" transform="translate(-2925 -1681.53)" fill="#f7b318"/><path d="M3052.12,2205.59a59.33,59.33,0,0,1-7.82-13.84l18-7.15c8.35,21,34.66,34.15,52.87,15.69,16.62-16.85-5.48-74,29.32-106.28s109.22,2.72,54.89,64.25c-7.24,8.2-24.18,27.39-26.72,44.09-.55,3.59,5,37.77,32.74-2.57,11.82-17.17,32.11-53.15,60.4-56.75,11.39-1.44,22.33,2.48,32.51,11.68l-13,14.37c-5.89-5.32-11.49-7.56-17.12-6.85-18.52,2.35-37.28,34.56-46.89,48.52-37.63,54.66-72.09,16.77-67.82-11.31,3-19.68,17.53-38.34,31.35-54,37.86-42.88-10.48-52.79-27.21-37.27-28.83,26.77-3,79.56-28.71,105.69C3105.59,2237.56,3071.13,2230.73,3052.12,2205.59Z" transform="translate(-2925 -1681.53)" fill="#f7b318"/><path d="M3071.44,2171a59.31,59.31,0,0,1-15.76-2.11l5.15-18.65c21.81,6,48.15-7.05,44.4-32.71-3.42-23.42-62.31-40.26-67.09-87.49-4.76-47,68-85.48,84.36-5,2.17,10.71,7.26,35.79,19.05,47.89,2.53,2.61,33.12,18.82,17.69-27.66-6.56-19.79-23-57.67-8.83-82.4,5.71-10,15.44-16.32,28.92-18.9l3.64,19c-7.8,1.49-13,4.61-15.78,9.52-9.29,16.2,5.08,50.59,10.42,66.67,20.9,63-30.11,67.61-49.93,47.27-13.89-14.26-20-37.1-24.15-57.56-11.37-56.06-48.43-23.47-46.14-.77,4,39.14,61.69,50.33,67,86.64C3129.19,2147.63,3103,2171,3071.44,2171Z" transform="translate(-2925 -1681.53)" fill="#f6c914"/><path d="M3135.15,2189.54a59.78,59.78,0,0,1-15.37-4.07l7.45-17.86c20.88,8.7,48.65-1,48.16-26.88-.45-23.66-56.76-47.76-55.57-95.22,1.19-47.28,78.24-76.26,84.32,5.61.81,10.9,2.7,36.42,12.88,49.91,2.19,2.9,30.49,22.83,21-25.23-4-20.45-15.6-60.1,1.59-82.86,6.92-9.16,17.37-14.24,31.07-15.11l1.22,19.31c-7.92.5-13.43,2.95-16.85,7.47-11.26,14.9-1.32,50.83,2,67.45,12.82,65.11-38.36,63.3-55.47,40.63-12-15.89-15.19-39.32-16.73-60.14-4.24-57.05-45.1-29.37-45.67-6.56-1,39.33,54.87,57.68,55.57,94.37C3195.38,2173.61,3166.42,2193.5,3135.15,2189.54Z" transform="translate(-2925 -1681.53)" fill="#f6c914"/><path d="M3085.2,2202.69a59.34,59.34,0,0,1-14.28,7l-6.06-18.38c21.47-7.09,36.13-32.59,18.78-51.85-15.84-17.58-74.18,1.09-104.37-35.55s9.17-108.86,67.39-51c7.75,7.71,25.9,25.75,42.43,29.28,3.55.75,38-2.73-.63-32.84-16.44-12.82-51.17-35.2-53.08-63.65-.77-11.45,3.79-22.14,13.57-31.77l13.58,13.79c-5.66,5.57-8.23,11-7.84,16.68,1.25,18.64,32.29,39.27,45.67,49.68,52.33,40.8,12.47,73-15.31,67-19.47-4.16-37.23-19.77-52-34.49-40.56-40.32-53.31,7.35-38.8,25,25,30.36,79.25,7.64,103.81,34.9C3120.28,2151.2,3111.42,2185.2,3085.2,2202.69Z" transform="translate(-2925 -1681.53)" fill="#f6c914"/><path d="M2985.83,2124.64c0-10-5.23-38.53,69.42-77.91l36.56,23.76-53,119.55Z" transform="translate(-2925 -1681.53)" fill="#ef5123"/><path d="M3089.69,2184.55c-7.35-6.8-31.85-22.32-10.11-103.86l42.26-10.74L3173.65,2190Z" transform="translate(-2925 -1681.53)" fill="#ed3024"/><path d="M3141.12,2184.55c-7.35-6.8-31.84-22.32-10.11-103.86l42.26-10.74L3225.09,2190Z" transform="translate(-2925 -1681.53)" fill="#ef5123"/><path d="M3199.71,2198.53c-7.35-6.8-31.84-22.32-10.11-103.87l42.27-10.73L3283.68,2204Z" transform="translate(-2925 -1681.53)" fill="#ed3024"/><path d="M3152.56,2126.93v202.7H2985l-60-348.8h83.49a16,16,0,0,0-.15,2A144.21,144.21,0,0,0,3152.56,2126.93Z" transform="translate(-2925 -1681.53)" fill="#c36328"/><path d="M3380,1980.83l-60,348.8H3152.56v-202.7a144.19,144.19,0,0,0,144.15-144.15c0-.68-.07-1.27-.07-2Z" transform="translate(-2925 -1681.53)" fill="#a94b25"/><polygon points="227.56 561.95 47.03 561.95 37.32 507.73 227.56 507.73 227.56 561.95" fill="#ed3024"/><polygon points="408.02 561.95 227.56 561.95 227.56 507.73 417.72 507.73 408.02 561.95" fill="#bc2025"/><path d="M3226.29,2223.45a73.13,73.13,0,1,1-73.13-73.13A73.13,73.13,0,0,1,3226.29,2223.45Z" transform="translate(-2925 -1681.53)" fill="#eac885"/></svg>