<svg id="Слой_1" data-name="Слой 1" xmlns="http://www.w3.org/2000/svg" viewBox="0 0 650 683.82"><path d="M1100,3218.13c-69.08,196.07-238.16,344.88-446,385.2L450,2919.85Z" transform="translate(-450 -2919.51)" fill="#fddd3f"/><path d="M995.82,3170.34C938.68,3330.71,792,3457.23,620,3490.22c0,0-170-570.69-170-570.71C450,2919.85,995.82,3170.34,995.82,3170.34Z" transform="translate(-450 -2919.51)" fill="#faaf41"/><path d="M526.71,3177.32c.28,1,12.49,40.86,12.49,40.86,94.35-10.53,132.82,118.86,48.3,162.3l12.42,41C739.25,3360.26,673.36,3150.52,526.71,3177.32Z" transform="translate(-450 -2919.51)" fill="#ee4137"/><path d="M932.47,3141.3c10.16,87.91-128,95.43-128,6.09a64.2,64.2,0,0,1,27.29-52.51l-31.46-14.41A95.13,95.13,0,0,0,773,3147.39c0,121.48,180.58,129.37,191,8.4Z" transform="translate(-450 -2919.51)" fill="#ee4137"/><path d="M611.57,3047c17.64,11.92,24.22,33,14.68,47.13s-31.57,15.89-49.21,4-24.21-33-14.68-47.13S593.94,3035.06,611.57,3047Z" transform="translate(-450 -2919.51)" fill="#4c2c1c"/><path d="M764.86,3352.71c-11.11,18.16-31.9,25.67-46.43,16.78s-17.3-30.82-6.18-49,31.89-25.68,46.42-16.78S776,3334.54,764.86,3352.71Z" transform="translate(-450 -2919.51)" fill="#4c2c1c"/><path d="M700,3164.74H674c-2.27-12.46-12.19-42.41,13-42.41h0C712.08,3122.33,702.28,3152.21,700,3164.74Z" transform="translate(-450 -2919.51)" fill="#f7ec32"/><path d="M861.57,3316.85l-18.27,18.53c-10.46-7.14-38.75-21.09-21.06-39h0C839.85,3278.48,854.25,3306.43,861.57,3316.85Z" transform="translate(-450 -2919.51)" fill="#f7ec32"/><path d="M604.75,3310.92l-23.46-11.24c3.33-12.22,7.32-43.52,30.05-32.63h0C634,3277.89,612.22,3300.6,604.75,3310.92Z" transform="translate(-450 -2919.51)" fill="#f7ec32"/><path d="M871.07,3180.16h-26c-2.27-12.46-12.19-42.41,13-42.41h0C883.14,3137.75,873.34,3167.63,871.07,3180.16Z" transform="translate(-450 -2919.51)" fill="#f7ec32"/><path d="M536.64,3013.43h-26c-2.26-12.46-12.19-42.41,13-42.41h0C548.72,2971,538.92,3000.9,536.64,3013.43Z" transform="translate(-450 -2919.51)" fill="#f7ec32"/><path d="M606.17,3053.43c7.21,4.87,9.89,13.48,6,19.25s-12.89,6.48-20.09,1.61-9.89-13.48-6-19.24S599,3048.57,606.17,3053.43Z" transform="translate(-450 -2919.51)" fill="#d79e84"/><path d="M761.35,3339.25c-5.15,8.43-14.79,11.91-21.53,7.79s-8-14.29-2.87-22.71,14.79-11.91,21.53-7.79S766.51,3330.83,761.35,3339.25Z" transform="translate(-450 -2919.51)" fill="#d79e84"/></svg>