<svg xmlns="http://www.w3.org/2000/svg" viewBox="0 0 500 500"><g id="BACKGROUND"><rect width="500" height="500" fill="#fff"/></g><g id="OBJECTS"><path d="M246.84,251.13a5.92,5.92,0,0,0-1.31-.81c-.45-.22-3.75-1.84-4.38-2.07s-1.13-.4-1.67.4c-.41.61-1.62,2-2,2.45s-.52.42-1.13.11a22.16,22.16,0,0,1-5.08-3.1,18.51,18.51,0,0,1-3.51-4.34c-.28-.47-.1-.69.25-1s1.14-1.34,1.22-1.45.41-.77.41-.77a1.38,1.38,0,0,0,0-1.3c-.11-.21-1.8-4.29-2-4.68-.49-1.15-1-1.21-1.5-1.18-.24,0-2.48,0-3.2.81l-.13.13a7.13,7.13,0,0,0-2.16,5.28,7.93,7.93,0,0,0,.34,2.21,14.43,14.43,0,0,0,2.31,4.46s1.67,2.31,2.49,3.26a22.57,22.57,0,0,0,8.49,6.36c3.79,1.48,5.4,1.82,6.32,1.82a13,13,0,0,0,1.43-.23c1.15-.1,3.9-1.53,4.48-3.14A5.31,5.31,0,0,0,246.84,251.13Z" fill="#fff"/></g></svg>