<svg id="_15" data-name="15" xmlns="http://www.w3.org/2000/svg" viewBox="0 0 330.86 355.85"><path d="M1786.88,975.51a129.38,129.38,0,0,0,94.27,124.58c83.47,23.41,164.74-39.37,164.74-124.58a129.51,129.51,0,0,0-259,0Z" transform="translate(-1715.03 -749.43)" fill="#0b893e"/><path d="M1943.14,908.79c.26,10.8-.11,27.94-.11,27.94s-52.68-.08-52.74-.1l.08-27.84Z" transform="translate(-1715.03 -749.43)" fill="#d8985d"/><path d="M1865.33,878.42h0a4.25,4.25,0,0,0,4.42-4v-13a4.24,4.24,0,0,0-4.42-4h0a4.24,4.24,0,0,0-4.43,4v13A4.25,4.25,0,0,0,1865.33,878.42Z" transform="translate(-1715.03 -749.43)" fill="#efa96f"/><path d="M1868.08,873.11V862.66c0-3.14-4.77-3.15-4.77,0v10.45C1863.31,876.28,1868.08,876.25,1868.08,873.11Z" transform="translate(-1715.03 -749.43)" fill="#e08d68"/><path d="M1970.93,877.08h0a4.2,4.2,0,0,1-4.34-4V860a4.2,4.2,0,0,1,4.34-4h0a4.19,4.19,0,0,1,4.34,4v13A4.19,4.19,0,0,1,1970.93,877.08Z" transform="translate(-1715.03 -749.43)" fill="#efa96f"/><path d="M1968.22,872.11V861.66a2.39,2.39,0,0,1,4.77,0v10.45C1973,875.27,1968.22,875.25,1968.22,872.11Z" transform="translate(-1715.03 -749.43)" fill="#e08d68"/><path d="M1873.56,818.27h88.27l6.21,65c0,16.62-19.69,33.93-36.3,33.93h-8.92a6.36,6.36,0,0,1-5.68,3.58h-1.34a6.37,6.37,0,0,1-5.69-3.58h-6.46c-16.61,0-35.43-17-35.43-33.67Z" transform="translate(-1715.03 -749.43)" fill="#efa96f"/><path d="M1794.52,967.82l.7-.48,3-2.05-11-8c-.06.15-3.78-4.22-6.06-6.92a3.06,3.06,0,0,0-4-.6h0a3.06,3.06,0,0,0-1,4.07l3.93,7.08C1784.23,965.68,1788.17,972.14,1794.52,967.82Z" transform="translate(-1715.03 -749.43)" fill="#bc7d4a"/><path d="M1832.05,946.16c6.7-14.32,15.53-12.37,56.73-18.52v-8h20.67l7,10.8,6.64-10.8h21.78v7.89c43,6.66,46.35,2.48,54.22,17.61,10.24,20.32,30.56,48.28,28.21,78.21,0,.17-25-4.52-25-4.52-7.5-7-16.47-25-23.56-35.44,14.45,34.91,23.45,63.41,14.5,96.37-29.31,24.37-94.55,41.52-150.62,2.12-5.83-17-7.71-37.55,7.72-92.37l-11.83,36.85c0,.23-21.82-27.34-21.82-27.34C1821.72,985.33,1826.09,959.31,1832.05,946.16Z" transform="translate(-1715.03 -749.43)" fill="#cee6ef"/><path d="M1895.41,939.64c-6.06-2.48-11.89-6.27-13.54-11l6.8-1.19c1.71,2.41,6.91,5.06,10.28,6.12a5.3,5.3,0,0,1,7.89,3.16c14.3,3.67,33.47-2.81,38-9.18l6.53,1c-3.85,11-28,18.93-46.34,14.72,3.31,5.64,3,12.61.48,18.59-3.94-3.7-7.13-9-7.38-14.89-3.77,4.53-9.5,6.79-15.06,7.22C1884.89,947.8,1889.17,941.87,1895.41,939.64Z" transform="translate(-1715.03 -749.43)" fill="#d30d0d"/><path d="M1933.31,967a4.46,4.46,0,1,0,4.46-4.46A4.46,4.46,0,0,0,1933.31,967Z" transform="translate(-1715.03 -749.43)" fill="#2d2f3d"/><path d="M1933.31,999a4.46,4.46,0,1,0,4.46-4.46A4.46,4.46,0,0,0,1933.31,999Z" transform="translate(-1715.03 -749.43)" fill="#2d2f3d"/><path d="M1933.31,1028.46a4.46,4.46,0,1,0,4.46-4.46A4.46,4.46,0,0,0,1933.31,1028.46Z" transform="translate(-1715.03 -749.43)" fill="#2d2f3d"/><path d="M1889.69,967a4.46,4.46,0,1,0,4.45-4.46A4.45,4.45,0,0,0,1889.69,967Z" transform="translate(-1715.03 -749.43)" fill="#2d2f3d"/><path d="M1889.69,999a4.46,4.46,0,1,0,4.45-4.46A4.46,4.46,0,0,0,1889.69,999Z" transform="translate(-1715.03 -749.43)" fill="#2d2f3d"/><path d="M1889.69,1028.46a4.46,4.46,0,1,0,4.45-4.46A4.46,4.46,0,0,0,1889.69,1028.46Z" transform="translate(-1715.03 -749.43)" fill="#2d2f3d"/><path d="M1955.65,857h0c0-12.32-25-10.48-26.07-5.55l.12,3.65C1939,853.51,1947.59,851.72,1955.65,857Z" transform="translate(-1715.03 -749.43)" fill="#7f3b24"/><path d="M1882.65,856.72h0c1.19-12.32,25.23-10.08,26.19-4.94l.08,3.46C1899.58,853.41,1890.78,851.62,1882.65,856.72Z" transform="translate(-1715.03 -749.43)" fill="#7f3b24"/><path d="M1936.24,877.72a9.63,9.63,0,1,0,9.62-9.54A9.58,9.58,0,0,0,1936.24,877.72Z" transform="translate(-1715.03 -749.43)" fill="#ff817b" opacity="0.52"/><path d="M1880.38,877.72a9.63,9.63,0,1,0,9.63-9.54A9.58,9.58,0,0,0,1880.38,877.72Z" transform="translate(-1715.03 -749.43)" fill="#ff817b" opacity="0.52"/><path d="M1927.28,877.31l-2-1.38c-4.72,3.24-11.63,2.73-14.53-.26l-2.35,1.07C1912.25,880.71,1921.24,881.45,1927.28,877.31Z" transform="translate(-1715.03 -749.43)" fill="#c67252"/><path d="M1871.5,815.44c-3.25-24.72,22.9-25.79,55.16-24.74,18.35.6,43,7.75,43.63,48.76.62,19.67-3.44,31.4-3.44,31.4-1.26-10.87-3.65-20.88-8.09-29.34-.9-.08-56.89.33-78.31-18.16,0,.2-11,29.35-9.77,46.18C1860.9,851.47,1864.29,831.06,1871.5,815.44Z" transform="translate(-1715.03 -749.43)" fill="#7f3b24"/><polygon points="149.62 93.53 255.66 93.59 252.67 45.95 153.87 44.95 149.62 93.53" fill="#a7d1d8"/><path d="M1891.55,751c27.65-5.52,53.75,3.9,62.58,21.39,19.65-2.89,37.79,9.53,37.47,25.74-.43,22-32.4,32.82-52.35,18.65-33.06,25.05-88.1,16.69-95.18-15.1C1839.21,779.89,1860.47,757.2,1891.55,751Z" transform="translate(-1715.03 -749.43)" fill="#cee6ef"/><path d="M1937.67,890c-11.65-3.48-13.59-1.63-19.56.63v-3.31c0-4.4,3.68-7.48,8-8.3,11.6-2.21,26.32,14.77,35.35-.63C1959.94,888.37,1950.51,893.65,1937.67,890Z" transform="translate(-1715.03 -749.43)" fill="#7f3b24"/><path d="M1889.58,861.41c5.18-4.83,13.53-4.61,17.56-.16l-1.35.9a9.74,9.74,0,0,0-5.46-2.64,3.13,3.13,0,1,1-3.85.13,13.69,13.69,0,0,0-5.74,2.75Z" transform="translate(-1715.03 -749.43)" fill="#15151e"/><path d="M1929.7,861.41c5.18-4.83,13.52-4.61,17.55-.16l-1.34.9a9.74,9.74,0,0,0-5.47-2.64,3.13,3.13,0,1,1-3.84.13,13.69,13.69,0,0,0-5.74,2.75Z" transform="translate(-1715.03 -749.43)" fill="#15151e"/><path d="M1933.31,1056.94a4.46,4.46,0,1,0,4.46-4.46A4.46,4.46,0,0,0,1933.31,1056.94Z" transform="translate(-1715.03 -749.43)" fill="#2d2f3d"/><path d="M1933.31,1086.36a4.46,4.46,0,1,0,4.46-4.46A4.46,4.46,0,0,0,1933.31,1086.36Z" transform="translate(-1715.03 -749.43)" fill="#2d2f3d"/><path d="M1889.69,1056.94a4.46,4.46,0,1,0,4.45-4.46A4.45,4.45,0,0,0,1889.69,1056.94Z" transform="translate(-1715.03 -749.43)" fill="#2d2f3d"/><path d="M1889.69,1086.36a4.46,4.46,0,1,0,4.45-4.46A4.45,4.45,0,0,0,1889.69,1086.36Z" transform="translate(-1715.03 -749.43)" fill="#2d2f3d"/><path d="M1897.93,889.81c11.65-3.48,13.67-.75,19,.86l.14-3.32c0-4.4-3.67-7.48-8-8.3-11.6-2.21-25,15.22-35.41-2C1874.79,886.59,1885.09,893.43,1897.93,889.81Z" transform="translate(-1715.03 -749.43)" fill="#7f3b24"/><path d="M1901.52,890.06h0a1.89,1.89,0,0,1,2.57,0c8.6,7.82,20.73,7.31,27.08,0a1.9,1.9,0,0,1,2.52-.32h0a1.88,1.88,0,0,1,.38,2.76c-7.73,8.92-22.35,9.57-32.53.32A1.89,1.89,0,0,1,1901.52,890.06Z" transform="translate(-1715.03 -749.43)" fill="#d16666"/><path d="M1795.93,930.1l-4.38-2.65a2.63,2.63,0,0,0-2.41-.16l-5,2.19Z" transform="translate(-1715.03 -749.43)" fill="#be1e2d"/><path d="M1782.26,928.87c-.14,1.08-1.81,1.74-3.73,1.49s-3.38-1.32-3.24-2.39,1.82-1.74,3.74-1.49S1782.4,927.8,1782.26,928.87Z" transform="translate(-1715.03 -749.43)" fill="#231f20"/><path d="M1745.51,948.94a3.09,3.09,0,0,1,4.37-.15l1.44,1.34a3.09,3.09,0,0,1,3.33.57l1.51,1.41a3.11,3.11,0,0,1,2.85.73l8.43,7.85h23.87c5.69,0,8.86,6.77,9.38,10.47l38.58,52.56c-6.15,22-19.77,14.59-21.89,11.36,0,.31-29.81-55.38-33.19-61.68h-17.12l-14.6-9.81-6.81-10.28A3.09,3.09,0,0,1,1745.51,948.94Z" transform="translate(-1715.03 -749.43)" fill="#d8985d"/><path d="M2000.76,1017.44c-20.66,6.94-51,17.5-51,17.5s-5.72,14.09-8,19.4c30.73-4.63,52.35-12,78.62-21,4.67-1.72,7.09-5.46,6.84-9.93C2027.26,1023.37,2000.58,1017.51,2000.76,1017.44Z" transform="translate(-1715.03 -749.43)" fill="#d8985d"/><path d="M1953.7,1053.46c-2.62-24.54.24-20.68-26.29-25-3.62-.63-5.47,5-1,5.8l10,2.35-10.2,1.09h0l-16.63,1.78c-3.83.4-3.21,6.19.62,5.78l16.63-1.78.09.84-19.48,2.08c-3.83.41-3.21,6.2.62,5.79l19.48-2.08.09.83-16.62,1.78c-3.83.41-3.21,6.2.62,5.79l16.62-1.78.08.8-13.14,1.41c-3.86.41-3.24,6.25.63,5.84l31.51-3.43A7.21,7.21,0,0,0,1953.7,1053.46Z" transform="translate(-1715.03 -749.43)" fill="#d8985d"/><rect x="1737.37" y="945.48" width="54.05" height="4.01" transform="translate(1813.76 1145.54) rotate(180)" fill="#554f5b"/><polygon points="0 192.15 22.38 196.16 76.25 196.16 99.46 192.15 99.46 188.02 0 188.02 0 192.15" fill="#837e89"/><path d="M1720.89,937.46h88.26a3.41,3.41,0,0,0,3.4-3.41h0a3.4,3.4,0,0,0-3.4-3.4h-88.26a3.41,3.41,0,0,0-3.41,3.4h0A3.41,3.41,0,0,0,1720.89,937.46Z" transform="translate(-1715.03 -749.43)" fill="#e29110"/><path d="M1804.15,930.65s-32.25-3.57-80.86,0Z" transform="translate(-1715.03 -749.43)" fill="#e0d512"/><path d="M1750.87,928.87c.14,1.08,1.81,1.74,3.74,1.49s3.37-1.32,3.23-2.39-1.81-1.74-3.74-1.49S1750.73,927.8,1750.87,928.87Z" transform="translate(-1715.03 -749.43)" fill="#231f20"/><path d="M1741.72,929c-.12.94-1.59,1.52-3.27,1.3s-3-1.16-2.84-2.09,1.59-1.53,3.28-1.31S1741.84,928.08,1741.72,929Z" transform="translate(-1715.03 -749.43)" fill="#231f20"/><path d="M1749.24,929.31l-6.67.24s.23-2.87,2.43-2.67S1749.24,929.31,1749.24,929.31Z" transform="translate(-1715.03 -749.43)" fill="#be1e2d"/><polygon points="49.73 179.63 43.68 179.63 44.69 176.99 49.37 177.44 49.73 179.63" fill="#be1e2d"/><path d="M1774,929.06s-2.26-4.42-8-3l2.92,1s-5-.48-6.2,1.55H1767l-3.26,1.24Z" transform="translate(-1715.03 -749.43)" fill="#8dc63f"/></svg>