<svg id="_15" data-name="15" xmlns="http://www.w3.org/2000/svg" viewBox="0 0 326.76 344.37"><path d="M1504.38,275.6a3.81,3.81,0,1,1-3.8-3.81A3.81,3.81,0,0,1,1504.38,275.6Z" transform="translate(-1221.97 -151.19)" fill="#a8a8a8"/><path d="M1472.8,370.12a125.28,125.28,0,0,1-91.3,120.64C1300.68,513.44,1222,452.64,1222,370.12a125.42,125.42,0,0,1,250.83,0Z" transform="translate(-1221.97 -151.19)" fill="#f44921"/><path d="M1321.47,305.51c-.25,10.45.11,27.05.11,27.05s51-.07,51.07-.09l-.08-27Z" transform="translate(-1221.97 -151.19)" fill="#eda580"/><path d="M1396.83,276.1h0a4.11,4.11,0,0,1-4.28-3.89V259.58a4.11,4.11,0,0,1,4.28-3.88h0a4.11,4.11,0,0,1,4.28,3.88v12.63A4.11,4.11,0,0,1,1396.83,276.1Z" transform="translate(-1221.97 -151.19)" fill="#fcbd9a"/><path d="M1394.17,271V260.84a2.31,2.31,0,0,1,4.61,0V271A2.31,2.31,0,0,1,1394.17,271Z" transform="translate(-1221.97 -151.19)" fill="#e08d68"/><path d="M1294.56,274.8h0a4.06,4.06,0,0,0,4.2-3.88V258.29a4.07,4.07,0,0,0-4.2-3.89h0a4.07,4.07,0,0,0-4.2,3.89v12.63A4.06,4.06,0,0,0,1294.56,274.8Z" transform="translate(-1221.97 -151.19)" fill="#fcbd9a"/><path d="M1297.18,270V259.87a2.31,2.31,0,0,0-4.61,0V270A2.31,2.31,0,0,0,1297.18,270Z" transform="translate(-1221.97 -151.19)" fill="#e08d68"/><path d="M1407.46,480.22c-42.86,23.55-91.55,17.32-122.75-1.48l3.45-25.33h115.28Z" transform="translate(-1221.97 -151.19)" fill="#2d2f3d"/><path d="M1388.85,217.85h-85.47l-6,63c0,16.1,19.06,29.4,35.16,29.4h8.63a6.14,6.14,0,0,0,5.5,3.46h1.3a6.16,6.16,0,0,0,5.51-3.46h6.25c16.09,0,34.32-13.05,34.32-29.14Z" transform="translate(-1221.97 -151.19)" fill="#fcbd9a"/><path d="M1471.75,350.54l-.68-.46-2.93-2,10.65-7.79c.06.15,3.67-4.09,5.87-6.7a3,3,0,0,1,3.87-.58h0a3,3,0,0,1,1,3.93l-3.8,6.86C1481.72,348.47,1477.9,354.73,1471.75,350.54Z" transform="translate(-1221.97 -151.19)" fill="#eda580"/><path d="M1519.22,332.26a3,3,0,0,0-4.23-.15l-1.4,1.3a3,3,0,0,0-3.22.55l-1.47,1.37a3,3,0,0,0-2.76.71l-8.16,7.6h-23.12c-5.51,0-8.58,6.55-9.08,10.14L1428,405.21c12.19,21.26,19.53,13.6,21.58,10.47,0,.3,28.87-53.63,32.14-59.74h16.59l14.13-9.49,6.6-9.95A3,3,0,0,0,1519.22,332.26Z" transform="translate(-1221.97 -151.19)" fill="#fcbd9a"/><rect x="252.79" y="177.73" width="52.34" height="3.88" fill="#554f5b"/><path d="M1443,385.4c-5-13.27-8.17-31-13.94-43.7-6.49-13.87-15-12-54.93-17.93V313.26h-20l-6.75,10.47-6.42-10.47h-21.09v10.41c-41.64,6.45-44.89,2.4-52.51,17.06-9.92,19.68-22.87,35.95-30.46,54,0,.17,21.71,13.56,21.71,13.56,7.27-6.74,21.64-20.35,28.51-30.48-5.71,13.79-8.6,40.08.9,75.62l59.58,0,55.87,0c17.51-19.48,12.72-44.14,8-69.69,22.34,33,25.38,32.63,25.38,32.63C1436.8,416.55,1443,385.4,1443,385.4Z" transform="translate(-1221.97 -151.19)" fill="#cee6ef"/><path d="M1331,361.83a4.32,4.32,0,1,1-4.32-4.32A4.31,4.31,0,0,1,1331,361.83Z" transform="translate(-1221.97 -151.19)" fill="#4956ce"/><path d="M1331,392.91a4.32,4.32,0,1,1-4.32-4.32A4.31,4.31,0,0,1,1331,392.91Z" transform="translate(-1221.97 -151.19)" fill="#4956ce"/><path d="M1331,421.4a4.32,4.32,0,1,1-4.32-4.32A4.31,4.31,0,0,1,1331,421.4Z" transform="translate(-1221.97 -151.19)" fill="#4956ce"/><path d="M1373.24,361.83a4.32,4.32,0,1,1-4.32-4.32A4.32,4.32,0,0,1,1373.24,361.83Z" transform="translate(-1221.97 -151.19)" fill="#4956ce"/><path d="M1373.24,392.91a4.32,4.32,0,1,1-4.32-4.32A4.32,4.32,0,0,1,1373.24,392.91Z" transform="translate(-1221.97 -151.19)" fill="#4956ce"/><path d="M1373.24,421.4a4.32,4.32,0,1,1-4.32-4.32A4.32,4.32,0,0,1,1373.24,421.4Z" transform="translate(-1221.97 -151.19)" fill="#4956ce"/><polygon points="326.76 173.95 305.09 177.83 252.92 177.83 230.44 173.95 230.44 169.96 326.76 169.96 326.76 173.95" fill="#837e89"/><path d="M1309.36,255.37h0c0-11.93,24.23-10.14,25.24-5.37l-.11,3.54C1325.45,252,1317.17,250.24,1309.36,255.37Z" transform="translate(-1221.97 -151.19)" fill="#4c1f0d"/><path d="M1380.06,255.08h0c-1.16-11.93-24.43-9.76-25.36-4.78l-.08,3.35C1363.66,251.88,1372.18,250.14,1380.06,255.08Z" transform="translate(-1221.97 -151.19)" fill="#4c1f0d"/><path d="M1326.77,271.26a9.32,9.32,0,1,1-9.32-9.24A9.28,9.28,0,0,1,1326.77,271.26Z" transform="translate(-1221.97 -151.19)" fill="#ff817b" opacity="0.23"/><path d="M1380.87,271.26a9.33,9.33,0,1,1-9.33-9.24A9.29,9.29,0,0,1,1380.87,271.26Z" transform="translate(-1221.97 -151.19)" fill="#ff817b" opacity="0.23"/><path d="M1339,275l1.49-1.33c3.54,3.15,8.73,2.68,10.89-.2l1.76,1C1350.29,278.33,1343.56,279,1339,275Z" transform="translate(-1221.97 -151.19)" fill="#e08d68"/><path d="M1390.85,215.11c3.15-24-22.17-25-53.42-24-17.77.58-41.61,7.5-42.25,47.22-.6,19,3.33,30.4,3.33,30.4l7.84-28.41c.86-.07,58.24.26,79-17.64-1.74.31,7.45,44.48,7.45,45.08C1400.62,250.24,1397.83,230.23,1390.85,215.11Z" transform="translate(-1221.97 -151.19)" fill="#4c1f0d"/><path d="M1348.26,297.62c-17,.66-18-11.55-16.71-11.23a63.27,63.27,0,0,0,29.35,0C1362.2,286.1,1360.39,297.15,1348.26,297.62Z" transform="translate(-1221.97 -151.19)" fill="#f1f2f2"/><path d="M1347,298.29c-9.74,0-13.7-4.35-15.2-7-1.25-2.16-1.51-4.31-1-5.13a.86.86,0,0,1,1-.45,62.8,62.8,0,0,0,29.06,0c.81-.09,1.13.51,1.14,1.32C1362,289.61,1359,298.29,1347,298.29Zm-15.16-11.17c-.17,2.44,2.93,10.39,16.43,9.85,9.7-.37,12.43-7.77,12.39-9.86a70.52,70.52,0,0,1-14.85,1.65h0A59.4,59.4,0,0,1,1331.8,287.12Z" transform="translate(-1221.97 -151.19)" fill="#c1535c"/><polygon points="175.51 90.58 72.83 90.63 75.72 44.5 171.4 43.53 175.51 90.58" fill="#a7d1d8"/><path d="M1371.44,152.71c-26.78-5.34-52,3.78-60.61,20.72-19-2.8-36.6,9.23-36.29,24.93.42,21.3,31.38,31.77,50.7,18.06,32,24.26,85.32,16.16,92.17-14.63C1422.12,180.68,1401.53,158.71,1371.44,152.71Z" transform="translate(-1221.97 -151.19)" fill="#cee6ef"/><path d="M1327.13,286.07c11.28-3.38,12.7-1.15,18.58,0v-1.33c0-4.26-3.56-7.24-7.74-8-11.23-2.14-13.22,10.58-19.92,2.62C1318.57,283.82,1319.59,287.83,1327.13,286.07Z" transform="translate(-1221.97 -151.19)" fill="#4c1f0d"/><path d="M1373.34,259.62c-5-4.68-13.1-4.46-17-.15l1.3.87a9.37,9.37,0,0,1,5.29-2.55,3,3,0,1,0,3.73.13,13.19,13.19,0,0,1,5.56,2.66Z" transform="translate(-1221.97 -151.19)" fill="#15151e"/><path d="M1334.49,259.62c-5-4.68-13.1-4.46-17-.15l1.3.87a9.37,9.37,0,0,1,5.29-2.55,3,3,0,1,0,3.72.13,13.08,13.08,0,0,1,5.56,2.66Z" transform="translate(-1221.97 -151.19)" fill="#15151e"/><path d="M1236.87,394.69l21.71,13.56,23.53,38.14c1.08-2.46,1.13-2.54,3.31-3.77l3.51,5.21,25.63,16.43c3.22,2.08.08,6.95-3.14,4.87l-14-9-.45.7,16.39,10.56c3.23,2.07.09,6.94-3.13,4.87l-16.4-10.56-.45.71,14,9c3.22,2.08.08,7-3.14,4.87l-14-9-.43.67,11.06,7.12c3.25,2.1.09,7-3.16,4.92l-22.14-14.52c-2.37-1.52-3.23-5-2.94-7.61,0,0-23.86-26.29-41.28-47.2C1228.59,411.4,1231.43,403,1236.87,394.69Z" transform="translate(-1221.97 -151.19)" fill="#f7c6aa"/><path d="M1365.27,286.07c-11.28-3.38-12.7-1.15-18.58,0v-1.33c0-4.26,3.55-7.24,7.74-8,11.23-2.14,13.22,10.58,19.92,2.62C1373.83,283.82,1372.8,287.83,1365.27,286.07Z" transform="translate(-1221.97 -151.19)" fill="#4c1f0d"/><path d="M1544.66,321.14h-88.17a44.1,44.1,0,0,1,88.17,0Z" transform="translate(-1221.97 -151.19)" fill="#c6c6c6"/><path d="M1500.58,278.3v42.84h-44.09A44.11,44.11,0,0,1,1500.58,278.3Z" transform="translate(-1221.97 -151.19)" fill="#a8a8a8"/></svg>