<svg xmlns="http://www.w3.org/2000/svg" viewBox="0 0 193.03 177.39"><g style="isolation:isolate"><g id="Layer_1" data-name="Layer 1"><path d="M190.37,122.62c-2.45-1.55-6.92-4.37-5.24-8.4a37.86,37.86,0,0,0,1.77-4.5,18.44,18.44,0,0,0,.81-8.27,13.86,13.86,0,0,0-.45-2,11.69,11.69,0,0,0-.3-4.24c0-.11-.08-.21-.11-.32-28.59-1.32-57.21-2-85.82-1.27C84.34,94,67.67,94.8,51,95c-8.27.11-16.54.21-24.8.5-4.3.15-9,1-13.41.62a12.84,12.84,0,0,0-.1,3.29,15.27,15.27,0,0,0-.44,2,18.44,18.44,0,0,0,.81,8.27,39.59,39.59,0,0,0,1.76,4.5c1.69,4-2.78,6.85-5.23,8.4-.52.32-1.76,2-.66,2.42a8.15,8.15,0,0,0,6.6,0,10.55,10.55,0,0,0-2.29,4.78,8.25,8.25,0,0,0,2.93,7.92c1,.74,2.6-.65,2.56-1.78v-.11a.56.56,0,0,1,0,.12c.48,1.21,1.94,2.18,2.85,3,3.16,2.86,2.48,8.56-.94,10.68-.47.28-1.55,2.09-.31,2a12.15,12.15,0,0,0,4.78-1.14,23.68,23.68,0,0,0-1.23,2.8c-1.74,4.76,1.19,9.68,5,12.12.69.43,1.78-.8,1.75-1.46a9.52,9.52,0,0,0-.3-2c2.25,2.87,8.53,1.61,5.63,8.34-.19.44-.19.91.34,1,2.27.45,3.9-.93,4.93-3,1.51,2.61,4.88,5.87,8.1,4a3,3,0,0,0,.86-.77l.22.19c2.29,1.89,6.14,3.59,3.66,7.37-.2.31-.53,1.29.19,1.23a5,5,0,0,0,3.89-2.64,11.09,11.09,0,0,0,5.52,7.12c.57.3,1.41-.65,1.27-1.23-.2-.73-.51-1.71-.79-2.76a9.17,9.17,0,0,0,1,1.42c1.94,2.31,5.19,3.27,8.54,3.66a6.9,6.9,0,0,1-1.11-2.34c-.12-.51.5-.92.86-.52a10,10,0,0,0,6.39,3.09l1.78,0c4.4-.09,8.79-.43,13.17-.8l.56,0c0,.08,0,.16,0,.24a23,23,0,0,1,9.16,0c0-.08,0-.16,0-.24l.56,0c4.38.37,8.77.71,13.17.8l1.78,0a10,10,0,0,0,6.39-3.09.51.51,0,0,1,.85.52,6.88,6.88,0,0,1-1.1,2.34c3.35-.39,6.6-1.35,8.54-3.66a9.17,9.17,0,0,0,1-1.42c-.28,1.05-.6,2-.79,2.76-.15.58.69,1.53,1.26,1.23a11.07,11.07,0,0,0,5.53-7.12,5,5,0,0,0,3.89,2.64c.71.06.38-.92.19-1.23-2.48-3.78,1.37-5.48,3.65-7.37l.22-.19a3,3,0,0,0,.87.77c3.22,1.83,6.59-1.43,8.1-4,1,2,2.65,3.41,4.92,3,.54-.1.54-.57.35-1-2.9-6.73,3.37-5.47,5.62-8.34a11,11,0,0,0-.3,2c0,.66,1.07,1.89,1.75,1.46,3.84-2.44,6.77-7.36,5-12.12a23.71,23.71,0,0,0-1.24-2.8,12.24,12.24,0,0,0,4.79,1.14c1.23,0,.16-1.77-.31-2-3.43-2.12-4.1-7.82-.95-10.68.91-.83,2.38-1.8,2.86-3l0-.12V136c0,1.13,1.59,2.52,2.56,1.78a8.25,8.25,0,0,0,2.93-7.92,10.56,10.56,0,0,0-2.3-4.78,8.16,8.16,0,0,0,6.6,0C192.13,124.61,190.88,122.94,190.37,122.62Z" transform="translate(-3.47 -10.11)" fill="#6a4829"/><path d="M186.78,123.58a7.22,7.22,0,0,1-4.1-6.29c0-2.8,1.18-4.68,2.85-6.72.44-.53,1-1.18,1.65-1.9a17.28,17.28,0,0,0,.53-7.22,13.86,13.86,0,0,0-.45-2,11.69,11.69,0,0,0-.3-4.24c0-.11-.08-.21-.11-.32-28.59-1.32-57.21-2-85.82-1.27C84.34,94,67.67,94.8,51,95c-8.27.11-16.54.21-24.8.5-4.3.15-9,1-13.41.62a12.84,12.84,0,0,0-.1,3.29,15.27,15.27,0,0,0-.44,2,18.44,18.44,0,0,0,.81,8.27,39.59,39.59,0,0,0,1.76,4.5c1.69,4-2.78,6.85-5.23,8.4-.52.32-1.76,2-.66,2.42a8.34,8.34,0,0,0,6,.23,4.27,4.27,0,0,1,3.52-1.61.55.55,0,0,1,.44.81c-2.43,4-3.55,9.22-1.24,13.17A2.15,2.15,0,0,0,18.71,136v-.11a.56.56,0,0,1,0,.12,3.63,3.63,0,0,0,.41.71c0-.22,0-.45,0-.68a9.2,9.2,0,0,1,3-6.89.52.52,0,0,1,.8.65C20,135.61,28.79,140,26.8,146.1c-.95,3-4.06,5.68-7,5.23,0,.23.18.38.55.37a12.19,12.19,0,0,0,4.78-1.14,7.26,7.26,0,0,1,3.52-2.63.53.53,0,0,1,.57.79c-3.1,4.38-5,14,1,16.25a1.58,1.58,0,0,0,.43-.95,9.52,9.52,0,0,0-.3-2,3.87,3.87,0,0,0,.53.54,9.66,9.66,0,0,1,2.82-8.48.51.51,0,0,1,.85.52c-1.78,5.82,5.17,8.25,4.72,13.82A6.12,6.12,0,0,1,38,171.35a5.18,5.18,0,0,0,3.26-2.95c1.51,2.61,4.88,5.87,8.1,4a3,3,0,0,0,.86-.77l.22.19c2.29,1.89,6.14,3.59,3.66,7.37-.2.31-.53,1.29.19,1.23a5,5,0,0,0,3.89-2.64,11.09,11.09,0,0,0,5.52,7.12c.57.3,1.41-.65,1.27-1.23-.2-.73-.51-1.71-.79-2.76a9.17,9.17,0,0,0,1,1.42c1.94,2.31,5.19,3.27,8.54,3.66a6.9,6.9,0,0,1-1.11-2.34c-.12-.51.5-.92.86-.52a10,10,0,0,0,6.39,3.09l1.78,0c4.4-.09,8.79-.43,13.17-.8l.56,0c0,.08,0,.16,0,.24a23,23,0,0,1,9.16,0c0-.08,0-.16,0-.24l.56,0c4.38.37,8.77.71,13.17.8l1.78,0a10,10,0,0,0,6.39-3.09.51.51,0,0,1,.85.52,6.88,6.88,0,0,1-1.1,2.34c3.35-.39,6.6-1.35,8.54-3.66a9.17,9.17,0,0,0,1-1.42c-.28,1.05-.6,2-.79,2.76-.15.58.69,1.53,1.26,1.23a11.07,11.07,0,0,0,5.53-7.12,5,5,0,0,0,3.89,2.64c.71.06.38-.92.19-1.23-2.48-3.78,1.37-5.48,3.65-7.37l.22-.19a3,3,0,0,0,.87.77c3.22,1.83,6.59-1.43,8.1-4,.91,1.79,2.29,3.08,4.17,3a25.49,25.49,0,0,1-2-2.53c-.7-1.38-1.36-3.14-.84-4.71a10.4,10.4,0,0,1,3.3-4.68c1.75-1.51,4.18-1.48,5.79-3.13a.52.52,0,0,1,.88.38c.24,2,.33,3.6-.45,5.27a9.91,9.91,0,0,0-.3,2,1.94,1.94,0,0,0,1.12,1.47c3.92-3.78,4.43-10.05,1.36-14.89a.55.55,0,0,1,.45-.81,4.47,4.47,0,0,1,2.73,1l-.12-.25a12.24,12.24,0,0,0,4.79,1.14.67.67,0,0,0,.38-.08c-7.82-2.7-5.52-13.68,1.05-17.05.36-.19.94.12.76.6a11.66,11.66,0,0,0-.42,1.39,2.35,2.35,0,0,0,1.5,1.33c1.17-1.82,2.21-3.71,1.49-6-.88-2.81-3-4.42-5.38-5.77a.56.56,0,0,1,0-.93,4.69,4.69,0,0,1,5.89.5c-.14-.22-.29-.43-.45-.64a8.16,8.16,0,0,0,6.6,0,.57.57,0,0,0,.17-.12A13.1,13.1,0,0,1,186.78,123.58Z" transform="translate(-3.47 -10.11)" fill="#825836" opacity="0.6" style="mix-blend-mode:multiply"/><path d="M102.44,27c-55.09.27-76.3,37.72-69.37,71.07,5,23.85,13.17,52.48,13.17,52.48L102,148.42l55.74,2.13s8.21-28.63,13.17-52.48C177.81,64.72,158.82,27.27,102.44,27Z" transform="translate(-3.47 -10.11)" fill="#f6ba9e"/><path d="M47.86,127.46s-5.55-14.32-16.45-6.5-4.59,36.82,17.48,33.64Z" transform="translate(-3.47 -10.11)" fill="#f6ba9e"/><path d="M32.87,128.16c1.7-1.76,4.6.51,5.81,1.74,4.54,4.59,6,13.89,5,20,0,.3-.55-.08-.56-.28a57.27,57.27,0,0,0-1-9.28c-1.26,2.47-4.76,4.41-7,3-.13-.09-.21-.38,0-.28,1.25.48,3.2-.8,4.09-1.56a8.75,8.75,0,0,0,2.28-3.68c-.2-.77-.42-1.54-.67-2.29-.84-2.53-4.81-9.62-8.06-5.3-1,1.33-1.32,3.48-1.67,5.09,0,.17-.33-.05-.32-.17C31,132.61,31.07,130,32.87,128.16Z" transform="translate(-3.47 -10.11)" fill="#ec8862"/><path d="M31.75,148.4a.7.7,0,0,1-.14,0c3.8,4.47,9.58,7.28,17.28,6.17l-1-27.14s-5-12.86-14.8-7.53c4.4,1,8.92,6.43,10.13,10.89.16.6-.67,1-1,.47-2.84-5.06-9.25-7.16-11.58-.59-1.48,4.19-.74,9.71,1.25,13.62C32.4,145.34,33.49,147.86,31.75,148.4Zm3.44-2.76c1-1.18,3-1.47,4.36-2.08a.45.45,0,0,1,.36,0l.59-.38a.55.55,0,0,1,.81.31c.75,2.9-.91,8.15-4.62,5.84C35.49,148.57,34,147,35.19,145.64Z" transform="translate(-3.47 -10.11)" fill="#f2a686" opacity="0.5" style="mix-blend-mode:multiply"/><path d="M155.34,127.46s5.55-14.32,16.45-6.5,4.59,36.82-17.48,33.64Z" transform="translate(-3.47 -10.11)" fill="#f6ba9e"/><path d="M170.33,128.16c-1.7-1.76-4.6.51-5.81,1.74-4.54,4.59-6,13.89-5,20,0,.3.55-.08.56-.28a57.27,57.27,0,0,1,.95-9.28c1.26,2.47,4.76,4.41,7,3,.13-.09.21-.38,0-.28-1.25.48-3.2-.8-4.09-1.56a8.75,8.75,0,0,1-2.28-3.68c.2-.77.42-1.54.67-2.29.84-2.53,4.81-9.62,8.06-5.3,1,1.33,1.32,3.48,1.67,5.09,0,.17.33-.05.32-.17C172.24,132.61,172.13,130,170.33,128.16Z" transform="translate(-3.47 -10.11)" fill="#ec8862"/><path d="M171.32,144.32c2-3.91,2.73-9.43,1.25-13.62-2.33-6.57-8.74-4.47-11.58.59-.31.56-1.14.13-1-.47,1.21-4.46,5.73-9.85,10.13-10.89-9.8-5.33-14.8,7.53-14.8,7.53l-1,27.14c7.7,1.11,13.48-1.7,17.28-6.17a.7.7,0,0,1-.14,0C169.71,147.86,170.8,145.34,171.32,144.32Zm-4.81,5c-3.71,2.31-5.37-2.94-4.62-5.84a.55.55,0,0,1,.81-.31l.59.38a.45.45,0,0,1,.36,0c1.36.61,3.33.9,4.36,2.08C169.22,147,167.71,148.57,166.51,149.32Z" transform="translate(-3.47 -10.11)" fill="#f2a686" opacity="0.5" style="mix-blend-mode:multiply"/><path d="M166.45,105.16a39.11,39.11,0,0,0-1.18-17.48c-7.11-13.24-24.18-20.1-41-23.28a84.14,84.14,0,0,0-17.42-2.31c-1.65,0-3.41,0-5.25,0s-3.6,0-5.25,0A84.14,84.14,0,0,0,78.93,64.4c-16.82,3.18-33.89,10-41,23.28a39.11,39.11,0,0,0-1.18,17.48c1.53,8.56,5.61,16.28,8,24.56,2.66,9.32-2.16,19.17.4,28.3,3,10.77,15.95,18.44,25,22.19A94.37,94.37,0,0,0,102,187.5a94.72,94.72,0,0,0,31.06-7.29c9.07-3.75,22-11.42,25-22.19,2.56-9.13-2.27-19,.4-28.3C160.84,121.44,164.92,113.72,166.45,105.16Z" transform="translate(-3.47 -10.11)" fill="#f6ba9e"/><path d="M165.27,87.68c-7.11-13.24-24.18-20.1-41-23.28a84.14,84.14,0,0,0-17.42-2.31c-1.65,0-3.41,0-5.25,0s-3.6,0-5.25,0A84.14,84.14,0,0,0,78.93,64.4c-16.82,3.18-33.89,10-41,23.28a39.11,39.11,0,0,0-1.18,17.48c1.53,8.56,5.61,16.28,8,24.56,2.66,9.32-2.16,19.17.4,28.3a19.72,19.72,0,0,0,1.66,4,57.2,57.2,0,0,1,.69-25.58,40,40,0,0,1,15.85-22.71c9.75-6.82,21.78-10.56,33.4-11.7,13.15-1.29,27.24.24,38.66,7.72A52.49,52.49,0,0,1,157,137.71c.35,1.07.65,2.14.93,3.22a30,30,0,0,1,.57-11.21c2.37-8.28,6.45-16,8-24.56A39.11,39.11,0,0,0,165.27,87.68Z" transform="translate(-3.47 -10.11)" fill="#f2a686" opacity="0.3" style="mix-blend-mode:multiply"/><path d="M196.22,106.63a5.24,5.24,0,0,1-2.24-2.5c.17-.38.21-.87-.23-1-.24-2.61,2-5.45,1.49-8.45-.91-5.5-3.07-8.43-6.63-12.64-6.14-7.25-2.87-13.47-1.34-21.72a10.81,10.81,0,0,0-4.41-11c-3.79-2.84-8.81-2.22-12.52-5.38-4.75-4.05-5.86-11-9.28-16-2.8-4.09-8.33-6-12.88-6.82A53.7,53.7,0,0,0,138.91,20a4.88,4.88,0,0,0-1.69.39c-1.15-1.44-3.12-2.39-4.7-3.21-4.79-2.5-9.42-4.81-14.76-5.71-9-1.52-20.09-2.16-28.94.38a17.42,17.42,0,0,0-8,5.29c-2.53,2.77-4,4.65-7.73,5.7-3.17.9-6.61.68-9.88.75-7.84.16-18.86.53-23.66,8.05-1.51,2.37-.92,4.92-.11,7.4.89,2.7,3.16,3.84-.92,4.91-1.46.39-2.86.63-4.3,1.14C28.59,47,19.58,52.28,23,59.66c1.05,2.25.95,2.11-1.51,3.23a20.52,20.52,0,0,0-4.86,2.92,21.67,21.67,0,0,0-6.51,9.7c-1.22,3.56-.09,6.28,2.8,8.39.69.49,1.4.95,2.12,1.39.89.66-3.88,4-4.38,4.41-2,1.5-4.23,1.7-6.28,2.88-.64.37-1.23,1.3-.81,2,1.49,2.46,4.6,3.12,7.42,2.5a16.89,16.89,0,0,0-3,6.38c-.39,1.67-.11,5,1.85,5.47a1.38,1.38,0,0,0,1.2-.33,3.48,3.48,0,0,0,2.08,3c3.46,1.59,12.79,1.81,5.88,8.29-1.83,1.72-4.47,2.47-5.78,4.71-.25.42-.21,1.1.39,1.13,3.81.16,8.23-2.12,11.18-5.46,0,.25.06.5.12.75,1,4.64,9.28.52,12,4.64.24,2.27-.79,4.58-1,6.84a7.9,7.9,0,0,0,5.95,8.69c.69.18,2.07-1.19,1.19-1.58l-.77-.44c-3-2.06-2.07-6.65-.64-9.63,1.64,2.07,3.36,4,5.82,5,.42.16,1.37-.66.93-1.05-6.1-5.41,3-10.39,1.66-16.6a3.39,3.39,0,0,1,1.84,2.57c.14.67,1.09.09,1.33-.11,1.29-1,2.28-2.3,1.68-4.13a4.26,4.26,0,0,0-2-2.14,35.21,35.21,0,0,1-3.51-1.24c-1-2-2.27-3.64-1.73-6.24s4.41-5.35,6.46-6.61a6,6,0,0,0,2.45-2.45,5.5,5.5,0,0,0,.29-1,7.45,7.45,0,0,1,.79.61c4.22,3.79-5.57,7.77-7.36,8.06a1.34,1.34,0,0,0-1.06,1.4c1,4.91,10.82,1.39,13.22,0a20,20,0,0,0,3-2.16,13.19,13.19,0,0,0,3.4-3.17c3.09-4.1-1.19-11.53,1.3-15.53.17-.13.32-.27.5-.39a21.33,21.33,0,0,0-.43,3,7.66,7.66,0,0,0,3,7c3.32,2.19,10.84,5.11,5.38,10.34-.28.28-.86,1.43,0,1.41,2.94-.07,5.29-2.26,7.15-4.39,3.9-4.48-3.57-9.94-3.56-14,0-6.64,9.32-8.68,12.79-13.11a2.81,2.81,0,0,0,.36-.6c.18,2.53-2.15,4.48-4.43,6.32a9.53,9.53,0,0,0-2.79,4.46c-1.55,4.24,1.63,9,5.56,10.22.5.16,1.26-.56,1-1.07-4.19-7,5.44-9.9,10.3-11.51a10.23,10.23,0,0,0,3.79-2.15c-1.94,3-4.79,5.65-6,9.16a8,8,0,0,0,4.08,9.68c.61.27,1.46-.65,1.32-1.26-2.33-9.51,7.15-7.41,12.28-11a9.28,9.28,0,0,0,2.85-3c.07.17.14.34.22.51,1.88,4,9.66,5.47,2.47,11.53-.23.2-.55.91,0,.94,4.18.19,8.74-3.17,10.45-7.28.94,1.23,1.22,2.82.11,5.23-2,4.44-2.73,8.21,1.81,11.44,1.51,1.09,4.6,1,5.59-.75a.49.49,0,0,0-.1-.69c-2.14-1.42-5.91-3.63-2.41-7.38a13.94,13.94,0,0,0,2.6-2.93c.15-.31.27-.63.41-.94.79,1.64,3.07,3,4.48,4,3.65,2.54,3.6,5.92.89,9-.21.24-.45.92,0,1.07,3.21,1.11,5.76-1.64,7.25-4.3l0,.17c1.15,5.18-4.38,9.18-2.86,14,.64,2,3.27,3.06,4.63,4.25a5.71,5.71,0,0,1,1.44,6.82,6.66,6.66,0,0,0-1.1,1.85.74.74,0,0,0,0,.14.89.89,0,0,0-.2.61c-.91,3.31.49,6.53,3.22,8.7.7.55,2-.6,1.75-1.41-2-5.81,4.55-6.23,5.23-10.57.3-1.91-.15-3.69-.25-5.56a6.47,6.47,0,0,1,1-.79,7.79,7.79,0,0,0,3.38,3.88c.29.17.76,0,1-.21,2.79-2,.48-5.23,4.71-7.43,2.86-1.49,5.92-1.87,8.66-3.78a6.41,6.41,0,0,0,2.26-4.77,5.69,5.69,0,0,0-.15-.93c1.7,1.64,3.88,2.08,6.29-.09C196.39,107.76,196.78,107,196.22,106.63Z" transform="translate(-3.47 -10.11)" fill="#6a4829"/><path d="M196.22,106.63a5.24,5.24,0,0,1-2.24-2.5c.17-.38.21-.87-.23-1-.24-2.61,2-5.45,1.49-8.45-.91-5.5-3.07-8.43-6.63-12.64-6.14-7.25-2.87-13.47-1.34-21.72a10.81,10.81,0,0,0-4.41-11c-3.79-2.84-8.81-2.22-12.52-5.38-4.75-4.05-5.86-11-9.28-16-2.8-4.09-8.33-6-12.88-6.82A53.7,53.7,0,0,0,138.91,20a4.88,4.88,0,0,0-1.69.39c-1.15-1.44-3.12-2.39-4.7-3.21-4.79-2.5-9.42-4.81-14.76-5.71-9-1.52-20.09-2.16-28.94.38a17.42,17.42,0,0,0-8,5.29c-2.53,2.77-4,4.65-7.73,5.7-3.17.9-6.61.68-9.88.75-7.84.16-18.86.53-23.66,8.05-1.51,2.37-.92,4.92-.11,7.4.89,2.7,3.16,3.84-.92,4.91-1.46.39-2.86.63-4.3,1.14C28.59,47,19.58,52.28,23,59.66c1.05,2.25.95,2.11-1.51,3.23a20.52,20.52,0,0,0-4.86,2.92,21.67,21.67,0,0,0-6.51,9.7c-1.22,3.56-.09,6.28,2.8,8.39.69.49,1.4.95,2.12,1.39.89.66-3.88,4-4.38,4.41-2,1.5-4.23,1.7-6.28,2.88-.64.37-1.23,1.3-.81,2,1.49,2.46,4.6,3.12,7.42,2.5a16.89,16.89,0,0,0-3,6.38c-.39,1.67-.11,5,1.85,5.47a1.38,1.38,0,0,0,1.2-.33,3.48,3.48,0,0,0,2.08,3c3.46,1.59,12.79,1.81,5.88,8.29-1.83,1.72-4.47,2.47-5.78,4.71-.25.42-.21,1.1.39,1.13,3.81.16,8.23-2.12,11.18-5.46,0,.25.06.5.12.75,1,4.64,9.28.52,12,4.64.24,2.27-.79,4.58-1,6.84a7.9,7.9,0,0,0,5.95,8.69c.69.18,2.07-1.19,1.19-1.58l-.77-.44c-3-2.06-2.07-6.65-.64-9.63,1.64,2.07,3.36,4,5.82,5,.42.16,1.37-.66.93-1.05-6.1-5.41,3-10.39,1.66-16.6a3.39,3.39,0,0,1,1.84,2.57c.14.67,1.09.09,1.33-.11,1.29-1,2.28-2.3,1.68-4.13a4.26,4.26,0,0,0-2-2.14,35.21,35.21,0,0,1-3.51-1.24c-1-2-2.27-3.64-1.73-6.24s4.41-5.35,6.46-6.61a6,6,0,0,0,2.45-2.45,5.5,5.5,0,0,0,.29-1,7.45,7.45,0,0,1,.79.61c4.22,3.79-5.57,7.77-7.36,8.06a1.34,1.34,0,0,0-1.06,1.4c1,4.91,10.82,1.39,13.22,0a20,20,0,0,0,3-2.16,13.19,13.19,0,0,0,3.4-3.17c3.09-4.1-1.19-11.53,1.3-15.53.17-.13.32-.27.5-.39a21.33,21.33,0,0,0-.43,3,7.66,7.66,0,0,0,3,7c3.32,2.19,10.84,5.11,5.38,10.34-.28.28-.86,1.43,0,1.41,2.94-.07,5.29-2.26,7.15-4.39,3.9-4.48-3.57-9.94-3.56-14,0-6.64,9.32-8.68,12.79-13.11a2.81,2.81,0,0,0,.36-.6c.18,2.53-2.15,4.48-4.43,6.32a9.53,9.53,0,0,0-2.79,4.46c-1.55,4.24,1.63,9,5.56,10.22.5.16,1.26-.56,1-1.07-4.19-7,5.44-9.9,10.3-11.51a10.23,10.23,0,0,0,3.79-2.15c-1.94,3-4.79,5.65-6,9.16a8,8,0,0,0,4.08,9.68c.61.27,1.46-.65,1.32-1.26-2.33-9.51,7.15-7.41,12.28-11a9.28,9.28,0,0,0,2.85-3c.07.17.14.34.22.51,1.88,4,9.66,5.47,2.47,11.53-.23.2-.55.91,0,.94,4.18.19,8.74-3.17,10.45-7.28.94,1.23,1.22,2.82.11,5.23-2,4.44-2.73,8.21,1.81,11.44,1.51,1.09,4.6,1,5.59-.75a.49.49,0,0,0-.1-.69c-2.14-1.42-5.91-3.63-2.41-7.38a13.94,13.94,0,0,0,2.6-2.93c.15-.31.27-.63.41-.94.79,1.64,3.07,3,4.48,4,3.65,2.54,3.6,5.92.89,9-.21.24-.45.92,0,1.07,3.21,1.11,5.76-1.64,7.25-4.3l0,.17c1.15,5.18-4.38,9.18-2.86,14,.64,2,3.27,3.06,4.63,4.25a5.71,5.71,0,0,1,1.44,6.82,6.66,6.66,0,0,0-1.1,1.85.74.74,0,0,0,0,.14.89.89,0,0,0-.2.61c-.91,3.31.49,6.53,3.22,8.7.7.55,2-.6,1.75-1.41-2-5.81,4.55-6.23,5.23-10.57.3-1.91-.15-3.69-.25-5.56a6.47,6.47,0,0,1,1-.79,7.79,7.79,0,0,0,3.38,3.88c.29.17.76,0,1-.21,2.79-2,.48-5.23,4.71-7.43,2.86-1.49,5.92-1.87,8.66-3.78a6.41,6.41,0,0,0,2.26-4.77,5.69,5.69,0,0,0-.15-.93c1.7,1.64,3.88,2.08,6.29-.09C196.39,107.76,196.78,107,196.22,106.63Zm-7.39-2a.51.51,0,0,1-1-.15c-.39-4.1-1.45-8.55-4.41-11.49s-6.44-3.5-10.15-4.73c-2.33-.78-4.41-2-5.35-4.53-1.49-4-.68-7.47-.23-11.41-3.2,4-4,10.84-.59,14.7,2.78,3.13,6.3,5.1,8.08,9.14,3,6.76,2.16,15.11-4.35,19.17-.42.26-.82-.17-.75-.61.79-5.33,1.91-10.75-.39-15.69-.55,5.25-.92,11.34-4.39,15.29A18.8,18.8,0,0,1,162,108c-1.48-5.08,1.67-9.75,2.37-14.63,1.22-8.63-4.39-14.51-6.89-22.36-1.16-3.64,1.23-9.09,1.55-12.89a30,30,0,0,0-.5-8.5,29.28,29.28,0,0,1-1.05,7.13c-2.12,8.22-4,16-3.23,24.49a18,18,0,0,1,1,3.68,16.09,16.09,0,0,1-.1,4.38,27.87,27.87,0,0,0-3.38-5.08c-2.85-3.45-5.18-6.24-6.7-10.64A36.91,36.91,0,0,1,143.41,67a91.92,91.92,0,0,0,.51-10.2,30,30,0,0,0-.27-3.1,21.52,21.52,0,0,0-1.11-5.67c-2.1-4.54-5.23-8.18-10.18-9.25,8.39,7.18,9.51,17.57,5.88,28.15-1,3-3.36,6.56-5.19,10.25a29.37,29.37,0,0,1-.51-6.25c.21-4.59,2.33-8.69,4.69-12.46.22-.35,0-.66-.36-.41a16.5,16.5,0,0,0-4.6,5.22A25.7,25.7,0,0,0,127.46,72a34.9,34.9,0,0,1-3.94,5,21.79,21.79,0,0,1-6.8,4.54c-.26.11-.58.23-.93.34a40.37,40.37,0,0,0,8.52-13.37,31.75,31.75,0,0,0,2.33-10.71,21,21,0,0,0-5.18-10,32.84,32.84,0,0,1,2,8.2,32.33,32.33,0,0,1-2.79,10.06,25.73,25.73,0,0,1-8.32,8.41c-3.18,1.86-6.62,3.14-9.84,4.91a26.77,26.77,0,0,0-6.17,4.79,47.74,47.74,0,0,1,3.29-6.4A49.09,49.09,0,0,0,104.43,70c.75-1.57,1.47-3,2.12-4.47a28.24,28.24,0,0,0,1.35-12,42.49,42.49,0,0,1-3.52,10.47c-2.66,3.63-6.58,7.12-10.52,7a.55.55,0,0,1-.36-.92c3-3.1,6.33-6.35,8.14-10.46a24,24,0,0,0,1.63-12.47,21.48,21.48,0,0,1-2.8,6,22.6,22.6,0,0,1-1.92,3.22,57,57,0,0,1-6.06,7c-2.46,1.91-5,3.64-7,5.24-3.4,2.77-7.44,5.88-9.71,9.8A17.52,17.52,0,0,0,73.37,88c-2.5-8,7.22-19,9.26-28.51-.6.76-1.24,1.47-1.84,2.11-3.33,3.58-7.4,6.45-10.6,10.15-2.29,2.66-4.31,5.79-4.82,9.42a19.29,19.29,0,0,0-.15,3.12l-.1-.28C60.18,70.44,68.36,59.52,79.55,53.6c.21-.11.58-.74.1-.65a21.24,21.24,0,0,0-3.37.9c-.08-.05-.26,0-.35.12l-.05,0-.43.16c-.86.28-2.58.72-2.58.72a32.72,32.72,0,0,0-4.55,2.46,35.14,35.14,0,0,0-8.13,7.56,28.63,28.63,0,0,0-4.7,9.4C53,78.79,50.8,83.2,46.91,87l-.65.61-1,.59C42.45,90,39.41,92.49,38.46,96c-1.06,3.93.39,6.85,2.48,10,.37.56.75,1.15,1.12,1.76l-.14-.11c-4.7-3-9-6.39-7.82-13,.54-3,2.32-5,4.25-7a35.32,35.32,0,0,1,5.71-4c.2-.11.6-.84.1-.69A28.59,28.59,0,0,0,28.34,95.76,22.79,22.79,0,0,0,25,107.51a27.76,27.76,0,0,1-4.05-2.27,8.74,8.74,0,0,1-3.44-7.58c1.89-3.26,5.43-5.3,8.89-6.7A20.81,20.81,0,0,0,20,92a13.93,13.93,0,0,1,3.2-3.83c3.7-3,8.65-2.32,12.85-3.81,4.62-1.65,9.36-3.62,11.08-8.76.19-.55-.56-.27-.72,0-3.4,4.7-8.89,5.51-14.33,6.48-4-.23-8.09-.61-12.09.43a.52.52,0,0,1-.65-.52,17,17,0,0,1,9.94-13.42A18.91,18.91,0,0,0,23,71.1c1.09-2.67,5.45-4.31,7.62-4.79,2.93-.64,6.25-.06,9.24-.18a17.09,17.09,0,0,0,10.87-4.4c3.08-2.57,4.9-6.36,5.94-10.24.81-3,1-6,2.19-8.92,1.95-4.6,7.39-7.12,11.8-8.22.33-.08.78-.86.21-.78a21.06,21.06,0,0,0-13,6.65c-2.89,3.28-3.53,7.52-4.68,11.52-2,3.52-5.63,3.22-8.93,1.9-2.91-1.17-5.67-3.28-9-2.34-3.05.88-4.77,3.18-5.6,6.29-.11.41-.76.58-.94.13-1.69-4.17-.25-8.16,3.75-10.08a14.2,14.2,0,0,1,6.18-1.52c1.86,0,5.62.81,6.66-1.4,1.39-3,.15-6.29-.25-9.41a6.21,6.21,0,0,1,1-2.73c1.81-2.72,6.06-3.19,8.94-3.39A39.18,39.18,0,0,1,66.1,30.25c6.2,1.36,12.48.75,17.6-3.53,3.66-3,6.56-6.37,10.93-8.48,4.74-2.3,10.47-2.76,15.61-2.67,8.11.13,19.9,3.79,24.08,11.83l.07.08a9,9,0,0,1,.22,1.06c.24-.18.47-.34.71-.5,8,.82,14.07,1.21,19.33,8.59,2.08,2.92,3.46,6.26,5.71,9.09s5.2,4.34,8.22,5.73c3.65,1.68,7.55,2.66,9,7,1.26,3.66-1.31,8.79-1.56,12.61-.32,4.91,2.34,8.87,5.85,11.72,1.57,1.86,3.31,3.61,4.66,5.49A16.93,16.93,0,0,1,188.83,104.66Z" transform="translate(-3.47 -10.11)" fill="#825836" opacity="0.6" style="mix-blend-mode:multiply"/><path d="M196.22,106.63a5.24,5.24,0,0,1-2.24-2.5c.17-.38.21-.87-.23-1-.24-2.61,2-5.45,1.49-8.45a20,20,0,0,0-3.64-8.86,22.74,22.74,0,0,1,1.48,8.3,23.56,23.56,0,0,1-2.25,9.75c-1.43,2.93-3.6,5.07-5.89,7.27a.52.52,0,0,1-.8-.65c2.51-4.52.6-10.24-2.5-14.61a16.3,16.3,0,0,1,1.53,8.71c-.25,3-1.49,6.54-3.84,8.42-2.67,2.13-7.18,3.21-6.38,7.63a.52.52,0,0,1-.86.52,12.49,12.49,0,0,1-2.48-3.9c-.38,5.23-2.13,10.29-6,13.29-.47.36-.88-.31-.7-.73,2.39-5.72.76-11.07-.71-16.62a16.15,16.15,0,0,0-.07,7.26.52.52,0,0,1-.85.52c-4.12-4.08-4.14-9.24-2.89-14.7.84-3.68,1.85-7.39,1.46-11.23a14.37,14.37,0,0,0-.62-2.87,15.11,15.11,0,0,1-5.19,7.77c-.34.25-.76-.09-.77-.46-.25-6.54-6.92-9.11-9.71-14.22a25.34,25.34,0,0,1-1.87-4.36,19.62,19.62,0,0,1-3,6.85.52.52,0,0,1-.94-.41,31.25,31.25,0,0,0-.3-8.36,43.47,43.47,0,0,1-5.43,10.56.51.51,0,0,1-.95-.27c-.47-4.67-4.61-7.62-4.18-12.59,0-.16,0-.31.06-.47A28.2,28.2,0,0,1,123,80.39a37.29,37.29,0,0,1-8.74,5.45c-3.14,1.43-6.73,2.94-8.21,6.42-.24.58-1,.15-.93-.41,1.37-6.44,5.68-11,9.41-16a41.29,41.29,0,0,1-4.3,2.19c-6.66,2.94-14.81,4.5-18.53,11.73a.5.5,0,0,1-.93-.12c-1-6.87,5.15-11.22,6.42-17.35a47.14,47.14,0,0,1-6.09,3.12c-3.11,1.38-6.47,2.8-8.86,5.39-3.49,3.79-4.83,8.67-1.81,13.25.24.38-.17,1-.58.79-8.27-3.36-9.32-13.13-6-20.68a15.54,15.54,0,0,0-5.53,8.44c-.79,3.17-.7,6.51-2.06,9.52a15.36,15.36,0,0,1-5.13,6.25c-.46.34-.89-.3-.7-.74,1.27-2.89,1.88-5.44.8-8.53A42.72,42.72,0,0,0,58.84,84a35.94,35.94,0,0,1-7.41,8.55c-2.31,2-5,4.23-6.17,7.18-1.56,3.76-.28,7.23.3,11a17.56,17.56,0,0,1-3.19,13.91c-.32.45-1.15.21-.94-.41,1.89-5.54-5.67-7.88-8.93-10.42A7.7,7.7,0,0,1,29.88,110c-1.16,3.35-3.26,6.16-6.44,6.82a.54.54,0,0,1-.5-.9c4.27-4.21-6.79-6.71-8.47-9.51-2.13-3.53-1.34-8.22,1-11.56a14.32,14.32,0,0,1-6.65-.58A.55.55,0,0,1,9,93.24c3.55-.45,5.57-3.69,8.3-5.69a21.4,21.4,0,0,1,5-2.81,14.05,14.05,0,0,0-5.84,1.14c-.28.13-.55-.13-.63-.37-1.89-5.27-2.9-10.58.88-15.2a33.61,33.61,0,0,1,3.69-3.76c1.24-1.11,3-2.32,2.78-4.28a.88.88,0,0,0,0-.16,15.61,15.61,0,0,1-1.61.78,20.52,20.52,0,0,0-4.86,2.92,21.67,21.67,0,0,0-6.51,9.7c-1.22,3.56-.09,6.28,2.8,8.39.69.49,1.4.95,2.12,1.39.89.66-3.88,4-4.38,4.41-2,1.5-4.23,1.7-6.28,2.88-.64.37-1.23,1.3-.81,2,1.49,2.46,4.6,3.12,7.42,2.5a16.89,16.89,0,0,0-3,6.38c-.39,1.67-.11,5,1.85,5.47a1.38,1.38,0,0,0,1.2-.33,3.48,3.48,0,0,0,2.08,3c3.46,1.59,12.79,1.81,5.88,8.29-1.83,1.72-4.47,2.47-5.78,4.71-.25.42-.21,1.1.39,1.13,3.81.16,8.23-2.12,11.18-5.46,0,.25.06.5.12.75,1,4.64,9.28.52,12,4.64.24,2.27-.79,4.58-1,6.84a7.9,7.9,0,0,0,5.95,8.69c.69.18,2.07-1.19,1.19-1.58l-.77-.44c-3-2.06-2.07-6.65-.64-9.63,1.64,2.07,3.36,4,5.82,5,.42.16,1.37-.66.93-1.05-6.1-5.41,3-10.39,1.66-16.6a3.39,3.39,0,0,1,1.84,2.57c.14.67,1.09.09,1.33-.11,1.29-1,2.28-2.3,1.68-4.13a4.26,4.26,0,0,0-2-2.14,35.21,35.21,0,0,1-3.51-1.24c-1-2-2.27-3.64-1.73-6.24s4.41-5.35,6.46-6.61a6,6,0,0,0,2.45-2.45,5.5,5.5,0,0,0,.29-1,7.45,7.45,0,0,1,.79.61c4.22,3.79-5.57,7.77-7.36,8.06a1.34,1.34,0,0,0-1.06,1.4c1,4.91,10.82,1.39,13.22,0a20,20,0,0,0,3-2.16,13.19,13.19,0,0,0,3.4-3.17c3.09-4.1-1.19-11.53,1.3-15.53.17-.13.32-.27.5-.39a21.33,21.33,0,0,0-.43,3,7.66,7.66,0,0,0,3,7c3.32,2.19,10.84,5.11,5.38,10.34-.28.28-.86,1.43,0,1.41,2.94-.07,5.29-2.26,7.15-4.39,3.9-4.48-3.57-9.94-3.56-14,0-6.64,9.32-8.68,12.79-13.11a2.81,2.81,0,0,0,.36-.6c.18,2.53-2.15,4.48-4.43,6.32a9.53,9.53,0,0,0-2.79,4.46c-1.55,4.24,1.63,9,5.56,10.22.5.16,1.26-.56,1-1.07-4.19-7,5.44-9.9,10.3-11.51a10.23,10.23,0,0,0,3.79-2.15c-1.94,3-4.79,5.65-6,9.16a8,8,0,0,0,4.08,9.68c.61.27,1.46-.65,1.32-1.26-2.33-9.51,7.15-7.41,12.28-11a9.28,9.28,0,0,0,2.85-3c.07.17.14.34.22.51,1.88,4,9.66,5.47,2.47,11.53-.23.2-.55.91,0,.94,4.18.19,8.74-3.17,10.45-7.28.94,1.23,1.22,2.82.11,5.23-2,4.44-2.73,8.21,1.81,11.44,1.51,1.09,4.6,1,5.59-.75a.49.49,0,0,0-.1-.69c-2.14-1.42-5.91-3.63-2.41-7.38a13.94,13.94,0,0,0,2.6-2.93c.15-.31.27-.63.41-.94.79,1.64,3.07,3,4.48,4,3.65,2.54,3.6,5.92.89,9-.21.24-.45.92,0,1.07,3.21,1.11,5.76-1.64,7.25-4.3l0,.17c1.15,5.18-4.38,9.18-2.86,14,.64,2,3.27,3.06,4.63,4.25a5.71,5.71,0,0,1,1.44,6.82,6.66,6.66,0,0,0-1.1,1.85.74.74,0,0,0,0,.14.89.89,0,0,0-.2.61c-.91,3.31.49,6.53,3.22,8.7.7.55,2-.6,1.75-1.41-2-5.81,4.55-6.23,5.23-10.57.3-1.91-.15-3.69-.25-5.56a6.47,6.47,0,0,1,1-.79,7.79,7.79,0,0,0,3.38,3.88c.29.17.76,0,1-.21,2.79-2,.48-5.23,4.71-7.43,2.86-1.49,5.92-1.87,8.66-3.78a6.41,6.41,0,0,0,2.26-4.77,5.69,5.69,0,0,0-.15-.93c1.7,1.64,3.88,2.08,6.29-.09C196.39,107.76,196.78,107,196.22,106.63Z" transform="translate(-3.47 -10.11)" fill="#825836" opacity="0.6" style="mix-blend-mode:multiply"/><path d="M88.85,51.3c-8.4,2.24-19.34,7.59-21.37,17.09a21.49,21.49,0,0,1,3.59-4.72c3.62-4.61,9.19-7.89,14.52-10.25C86.65,52.68,87.74,52,88.85,51.3Z" transform="translate(-3.47 -10.11)" fill="#6a4829" opacity="0.6" style="mix-blend-mode:screen"/><path d="M58.5,55.79C59,50.13,60.57,44.57,64,40.39a19.17,19.17,0,0,0-5.43,6.4c-1.31,2.55-1.36,5.77-2,8.52-1.13,4.75-4.84,7.79-8.78,9.89-7.11,3.79-20.66.73-24,9.76a12,12,0,0,1,7.45-4.29c1.65-.21,3.29-.29,4.93-.35,1.47-.15,2.94-.31,4.39-.6A30.63,30.63,0,0,0,52.3,64.54a17.31,17.31,0,0,0,6.05-8.25Z" transform="translate(-3.47 -10.11)" fill="#6a4829" opacity="0.6" style="mix-blend-mode:screen"/><path d="M105.69,75.57c.85-.15,1.7-.34,2.54-.54,8.27-5.35,15-14.6,12.77-24.1a28.45,28.45,0,0,0-3.22-5.16,23.9,23.9,0,0,1,1,14.31C117.34,67,111.07,71.72,105.69,75.57Z" transform="translate(-3.47 -10.11)" fill="#6a4829" opacity="0.6" style="mix-blend-mode:screen"/><path d="M151.31,70.64a69.77,69.77,0,0,1,2.58-9.31c.89-2.63,1.92-5.78,1.28-8.55-1.95,9.21-7.46,17.35-4.37,26.6A29.46,29.46,0,0,1,151.31,70.64Z" transform="translate(-3.47 -10.11)" fill="#6a4829" opacity="0.6" style="mix-blend-mode:screen"/><path d="M185.67,92.44a16.8,16.8,0,0,1,2.52,4.26c-.38-4.07-2.86-8.26-5.43-11.12-2.37-2.64-5-3.91-6.66-7.31-2.13-4.3-1.92-8.92-1-13.51.1-.51-.55-.14-.64.14-2.17,6.48-2.44,12.91,2,18.46,1.74,2.15,4.52,3.32,6.48,5.24A14.38,14.38,0,0,1,185.67,92.44Z" transform="translate(-3.47 -10.11)" fill="#6a4829" opacity="0.6" style="mix-blend-mode:screen"/><path d="M172.51,110.28a6.4,6.4,0,0,0,1.41-.87,11.36,11.36,0,0,0,1.07-8.76,23.53,23.53,0,0,0-2.27-3.15c1.48,3.86,2.66,8.72-.17,12.11C172.33,109.88,172.36,110.15,172.51,110.28Z" transform="translate(-3.47 -10.11)" fill="#6a4829" opacity="0.6" style="mix-blend-mode:screen"/><path d="M70.37,32.06c-7.06-3.25-14.64-2.33-20.1,3.5-.32.34-.17.91.3.55a14.83,14.83,0,0,1,9.56-3.61c3.08,0,5.9,1.53,8.93,1.7C69.79,34.24,71.47,32.57,70.37,32.06Z" transform="translate(-3.47 -10.11)" fill="#6a4829"/><path d="M73,33.47a17,17,0,0,0,9.65-2c5-2.73,9-7.19,13.94-10,6.77-3.86,14.45-4.16,21.89-2.82-7.51-2.37-16-2.47-22.94,1.45-3.41,1.93-5.77,4.56-8.73,7-4.77,4-13.48,7-19.39,4.61a.33.33,0,0,0-.28.06C68.7,33.07,71.22,33.32,73,33.47Z" transform="translate(-3.47 -10.11)" fill="#6a4829" opacity="0.6" style="mix-blend-mode:screen"/><path d="M116.64,154.66a89.06,89.06,0,0,1-12,1.36c-3.26.17-6.51.33-9.77.31-1.79,0-17.67-1.64-15.22-5.43,0-.05,0-.08-.07,0-1.09,1.07-.7,2,.54,2.84,5.51,3.77,12.61,3.53,18.89,3.53,9.19,0,19.08-1.07,27.64-4.66h0C123.29,153.27,120,154.12,116.64,154.66Z" transform="translate(-3.47 -10.11)" fill="#c39368"/><path d="M119.11,170.09c-4,5.6-10.52,6.91-16.79,6.19A25.16,25.16,0,0,1,87,168.84c-4-4.28-5.3-10.05-7.06-15.55,6.82,3.26,14.68,3.93,22.09,3.5s15.49-.72,22.45-3.47A29.12,29.12,0,0,1,119.11,170.09Z" transform="translate(-3.47 -10.11)" fill="#930323" style="mix-blend-mode:multiply"/><path d="M88.05,160.64c10.47,2.06,20.75,2.2,30.75-1.23a16.2,16.2,0,0,0,.45-4.51c-5.66,1.31-11.73,1.57-17.26,1.89a50.73,50.73,0,0,1-16.93-1.56A16.74,16.74,0,0,0,88.05,160.64Z" transform="translate(-3.47 -10.11)" fill="#fff"/><path d="M115.12,172.31a22.54,22.54,0,0,0-9.14-3.72,16.61,16.61,0,0,0-9.46,1.15,10,10,0,0,0-3.93,3.43,26.36,26.36,0,0,0,9.73,3.11c4.9.57,10-.13,13.85-3.12A12.18,12.18,0,0,0,115.12,172.31Z" transform="translate(-3.47 -10.11)" fill="#f08394"/><path d="M124.22,132.59c.07,3.81-1,6.95-2.34,7s-2.53-3-2.59-6.78,1-7,2.34-7S124.15,128.78,124.22,132.59Z" transform="translate(-3.47 -10.11)" fill="#3d1a0b"/><path d="M121.35,129.84c0,1.15-.44,2.07-.85,2.06s-.7-1-.64-2.14.43-2.07.84-2S121.41,128.69,121.35,129.84Z" transform="translate(-3.47 -10.11)" fill="#fff"/><path d="M80.32,132.57c-.21,3.8-1.48,6.85-2.84,6.82s-2.3-3.16-2.08-7,1.49-6.86,2.85-6.81S80.54,128.76,80.32,132.57Z" transform="translate(-3.47 -10.11)" fill="#3d1a0b"/><path d="M77.67,129.6c-.14,1.15-.59,2-1,2s-.62-1-.48-2.18.58-2,1-2S77.81,128.45,77.67,129.6Z" transform="translate(-3.47 -10.11)" fill="#fff"/><path d="M76.75,144.38c-.36,2.12-4.78,3-9.86,2s-8.92-3.59-8.56-5.71,4.78-3,9.86-2S77.11,142.26,76.75,144.38Z" transform="translate(-3.47 -10.11)" fill="#f9cbc0"/><path d="M147.25,145.34c.08,2.15-4,4-9.21,4.18s-9.46-1.44-9.56-3.6,4-4,9.21-4.19S147.14,143.19,147.25,145.34Z" transform="translate(-3.47 -10.11)" fill="#f9cbc0"/><path d="M95.84,148.85a2.46,2.46,0,0,1,1.21-3,6.25,6.25,0,0,1,6.32,1.09.36.36,0,0,0-.05-.36,7.64,7.64,0,0,0-3.64-2.1c.48-1.27-.05-2.25-.71-3.37-.11-.2-1-.92-.88-.66.26.86.57,2.81-.1,3.48a1.89,1.89,0,0,0-.22.33,3.65,3.65,0,0,0-2.53,1.09c-2,2.18.41,6,2.76,6.43a.11.11,0,0,0,.12,0A5.17,5.17,0,0,1,95.84,148.85Z" transform="translate(-3.47 -10.11)" fill="#c39368"/><path d="M132.84,121.1c-.61-5.37-4.48-13.06-10.75-12.09-5.07.79-9.35,6.53-9.39,11.86a.41.41,0,0,0,.79.17c1.39-4.17,3.22-7.3,7.5-8.56,5.47-1.61,7.67,5.1,8.7,9.24A1.61,1.61,0,1,0,132.84,121.1Z" transform="translate(-3.47 -10.11)" fill="#6d2614"/><path d="M78.38,109.41c-5.59-.7-11.78,5.49-10.89,11.47a1.36,1.36,0,0,0,2.25.81c2.89-2.77,2.66-8.33,7.67-8.55,4.19-.18,7.33,4,8.45,7.74.13.42.79.47.8,0C86.69,115.82,83.52,110.06,78.38,109.41Z" transform="translate(-3.47 -10.11)" fill="#6d2614"/><path d="M93.21,123.05c-8.83-18.85-42.3-10.14-38.4,11.77,2.35,13.2,16,18.42,27,15.3S98.2,133.71,93.21,123.05ZM79.74,147.59c-9.09,2.55-20.47-3.94-21.25-14.72-1.32-18.53,25.37-22,31.42-8.85C94.89,134.85,88.68,145.07,79.74,147.59Z" transform="translate(-3.47 -10.11)" fill="#6b797c"/><path d="M148.54,122.84c-8.8-18.8-42.29-10.17-38.39,11.77,2.35,13.21,16,18.43,27,15.31S153.54,133.51,148.54,122.84Zm-13.46,24.54c-9.09,2.56-20.47-3.94-21.24-14.72-1.33-18.53,25.37-22,31.41-8.84C150.23,134.64,144,144.87,135.08,147.38Z" transform="translate(-3.47 -10.11)" fill="#6b797c"/><path d="M113.74,135.25c-1-5.18-4.85-11.07-10.44-11.32-5.77-.26-10,4.55-11,10.28a1,1,0,0,0,1.51,1.1c3.54-1.83,5.75-7.73,10.42-5.61,3.35,1.52,4.53,6.29,8.11,7.16A1.26,1.26,0,0,0,113.74,135.25Z" transform="translate(-3.47 -10.11)" fill="#3e4849"/><path d="M130.26,116.63c-17.88,2.61-15.37,18.21-15.37,18.21.44-5.71,3.72-15,15-16.47S146,130.89,146,130.89C145.81,119.41,134,116.08,130.26,116.63Z" transform="translate(-3.47 -10.11)" fill="#fff"/><path d="M74.43,116.6c-17.87,2.62-15.36,18.21-15.36,18.21.43-5.71,3.72-15,15-16.46s16.14,12.52,16.14,12.52C90,119.39,78.16,116.06,74.43,116.6Z" transform="translate(-3.47 -10.11)" fill="#fff"/></g></g></svg>