<svg id="Слой_1" data-name="Слой 1" xmlns="http://www.w3.org/2000/svg" viewBox="0 0 650 509.41"><path d="M4794.26,3229.1a136.66,136.66,0,0,0,.93-15.32c0-114.36-138.53-207.07-309.42-207.07s-309.44,92.71-309.44,207.07a141.57,141.57,0,0,0,.93,15.32Z" transform="translate(-4162.5 -3006.71)" fill="#fdbe10"/><path d="M4177.21,3420.33a93,93,0,0,0-.88,12.23c0,46.16,32.8,83.56,73.27,83.56h472.33c40.47,0,73.26-37.4,73.26-83.56a94.77,94.77,0,0,0-.86-12.23Z" transform="translate(-4162.5 -3006.71)" fill="#fdbe10"/><path d="M4812.5,3341.73c0,32.39-24.19,58.65-54,58.65h-542c-29.83,0-54-26.26-54-58.65h0c0-32.4,24.19-58.67,54-58.67h542c29.83,0,54,26.27,54,58.67Z" transform="translate(-4162.5 -3006.71)" fill="#673b16"/><rect x="28.8" y="222.39" width="587.77" height="38.94" fill="#e31c3a"/><polygon points="616.72 395.28 21.72 395.28 21.72 415.93 114.32 415.93 192.48 461.25 245.13 415.93 616.72 415.93 616.72 395.28" fill="#fbed21"/><path d="M4779.22,3264.93h-595v20.65h282.33a35.62,35.62,0,0,0-1.43,9.8c0,23.39,22.65,42.35,50.56,42.35,13.71,0,26.11-4.57,35.22-12,13.8,22,39.47,36.83,68.92,36.83,44,0,79.74-33,79.74-73.81,0-1.08-.12-2.12-.17-3.18h79.83Z" transform="translate(-4162.5 -3006.71)" fill="#94b73d"/><path d="M4354.1,3133c0,8.32-15,15.08-33.6,15.08s-33.62-6.76-33.62-15.08,15.05-15.08,33.62-15.08S4354.1,3124.66,4354.1,3133Z" transform="translate(-4162.5 -3006.71)" fill="#f1932e"/><path d="M4443.33,3087.31c0,8.33-15.05,15.09-33.62,15.09s-33.6-6.76-33.6-15.09,15-15.06,33.6-15.06S4443.33,3079,4443.33,3087.31Z" transform="translate(-4162.5 -3006.71)" fill="#f1932e"/><path d="M4523.37,3129.17c0,8.33-15,15.08-33.61,15.08s-33.61-6.75-33.61-15.08,15-15.07,33.61-15.07S4523.37,3120.84,4523.37,3129.17Z" transform="translate(-4162.5 -3006.71)" fill="#f1932e"/><path d="M4608.5,3092.53c0,8.33-15.05,15.08-33.61,15.08s-33.61-6.75-33.61-15.08,15.05-15.08,33.61-15.08S4608.5,3084.2,4608.5,3092.53Z" transform="translate(-4162.5 -3006.71)" fill="#f1932e"/><path d="M4673.32,3144.25c0,8.33-15,15.08-33.61,15.08s-33.61-6.75-33.61-15.08,15-15.08,33.61-15.08S4673.32,3135.92,4673.32,3144.25Z" transform="translate(-4162.5 -3006.71)" fill="#f1932e"/></svg>