<svg id="clock" xmlns="http://www.w3.org/2000/svg" viewBox="0 0 194.88 198.78"><g id="hands"><path d="M1569.47,425.48c62.17-17.85,86.79-32,107.72,57.86s13.55,97.88-53.86,115.73-101.26,30.16-122.13-74.49C1476.52,440.87,1507.3,443.33,1569.47,425.48Z" transform="translate(-1492.67 -412.23)" fill="#fdc55e" style="isolation:isolate"/><circle cx="99.75" cy="101.41" r="37.63" fill="#fff"/><circle cx="99.16" cy="102.09" r="28.92" fill="#fdc55e" style="isolation:isolate"/><path d="M1583.24,499.45c1.31-3.87,7-6.31,8.81,5.09,1.77,10.89,0,9.39,11.43,7.34s8.27,5.74,2.22,6.83-16.91,6.76-19.49-4.18C1584.68,507.58,1583.24,499.45,1583.24,499.45Z" transform="translate(-1492.67 -412.23)" fill="#fff"/></g></svg>