<svg id="_15" data-name="15" xmlns="http://www.w3.org/2000/svg" viewBox="0 0 282.33 301.95"><polygon points="27.97 177.79 34.65 177.79 50.97 187.02 46.29 190.18 27.97 177.79" fill="#e09a5a"/><polygon points="33.58 177.54 41.86 177.54 50.97 187.02 33.58 177.54" fill="#cc864c"/><polygon points="41.86 177.54 47.32 177.54 53.7 187.02 50.97 187.02 41.86 177.54" fill="#b77544"/><path d="M2334.56,333.4h-2.82l-2.62,7.83c.3,1.12,1,8.77,1.39,14.89l2.47,3.48-14.1,9.89-5.2-6.19c-5.19-6.18-10.75-16.05-10.75-16.05l-13.11-6.67-8.1-5.72-7.83-.16a2.87,2.87,0,0,1-2.72-2.65,2.94,2.94,0,0,1,2.85-3.34l9.72.2c.88,0,.43-.08,10.16,5l11.85,3.21,14.19,1.16a25.71,25.71,0,0,1,4.39-6.88,8.38,8.38,0,0,1,6.25-2.77h4a2.37,2.37,0,1,1,0,4.74Z" transform="translate(-2255.77 -151.12)" fill="#f2af6c"/><path d="M2277.82,334.78l-3.93-.08a2.87,2.87,0,0,1-2.72-2.65c.65-.25,1.2-.16,4.29-.16A2.41,2.41,0,0,1,2277.82,334.78Z" transform="translate(-2255.77 -151.12)" fill="#ffc37b"/><path d="M2334.56,333.4h-2.35a2.37,2.37,0,0,1,2.39-2.49h2.33A2.36,2.36,0,0,1,2334.56,333.4Z" transform="translate(-2255.77 -151.12)" fill="#ffc37b"/><polygon points="88.61 233.07 96.08 215.57 82.42 210.15 77.02 205.43 60.48 216.75 65.59 223.4 88.61 233.07" fill="#d3d1d1"/><polygon points="101.23 176.15 1.48 176.15 0 172.76 102.72 172.76 101.23 176.15" fill="#b2b1b1"/><rect x="6.64" y="176.14" width="89.44" height="2.05" fill="#8e8d8d"/><path d="M2309.92,277a3.18,3.18,0,1,0-4.74,2.76v3.11h3.13V279.8A3.16,3.16,0,0,0,2309.92,277Z" transform="translate(-2255.77 -151.12)" fill="#b2b1b1"/><path d="M2306.75,281.41v42.47h-43.83A43.85,43.85,0,0,1,2306.75,281.41Z" transform="translate(-2255.77 -151.12)" fill="#d3d1d1"/><path d="M2350.56,323.88h-43.81V281.41A43.83,43.83,0,0,1,2350.56,323.88Z" transform="translate(-2255.77 -151.12)" fill="#c6c2c2"/><path d="M2288.19,295.6a2.74,2.74,0,1,1-2.73-2.74A2.73,2.73,0,0,1,2288.19,295.6Z" transform="translate(-2255.77 -151.12)" fill="#fff"/><path d="M2295.13,289.61a1.48,1.48,0,1,1-1.48-1.47A1.48,1.48,0,0,1,2295.13,289.61Z" transform="translate(-2255.77 -151.12)" fill="#fff"/><path d="M2307.62,276.78a1.47,1.47,0,1,1-1.47-1.46A1.47,1.47,0,0,1,2307.62,276.78Z" transform="translate(-2255.77 -151.12)" fill="#fff"/><path d="M2398.18,421.43v31.64h85.05s-5.44-27.23-16.33-46.29Z" transform="translate(-2255.77 -151.12)" fill="#222324"/><polygon points="142.4 255.66 74.52 236.35 82.53 204.01 153.94 221.39 142.4 255.66" fill="#222324"/><path d="M2465.34,282.78l-2.08-21.35-21.4,2.11,2.06,21.38C2442.25,285.18,2467,282.71,2465.34,282.78Z" transform="translate(-2255.77 -151.12)" fill="#fcb560"/><path d="M2490.65,207.55c-6.77-20.91-26.07-37.05-47-35s-36.71,21.69-39.25,43.53a7.91,7.91,0,0,0-7.5,8.72l.8,8.11c.41,4.16,3.78,7.6,9.47,7,7.25,20.13,26.07,35.35,46.47,33.33s35.87-20.65,39-41.8c5.7-.56,8.33-4.59,7.91-8.76l-.8-8.11a7.92,7.92,0,0,0-9.08-7.07Z" transform="translate(-2255.77 -151.12)" fill="#ffc37b"/><path d="M2463.55,250.75a15.61,15.61,0,0,1-1.41,4l-20.54,2a15.84,15.84,0,0,1-2.17-3.67c3.2-.32,7.6-.46,12-.89S2460.29,251.07,2463.55,250.75Z" transform="translate(-2255.77 -151.12)" fill="#fff"/><path d="M2462.14,254.77a12,12,0,0,1-20.54,2Z" transform="translate(-2255.77 -151.12)" fill="#d32e0d"/><path d="M2427,221.3a9,9,0,0,0-8,9.74l17.81-1.77A8.94,8.94,0,0,0,2427,221.3Z" transform="translate(-2255.77 -151.12)" fill="#5d5d5d"/><path d="M2436.78,229.28l-15.51,1.53a6.4,6.4,0,0,1,2.33-5.42c.7-.87,3.83-2.68,7.82-1.78A6.79,6.79,0,0,1,2436.78,229.28Z" transform="translate(-2255.77 -151.12)" fill="#fff"/><path d="M2432.39,229.71l-7.93.79a4.91,4.91,0,0,1-.86-5.11c.7-.87,3.85-2.68,7.82-1.78A4.85,4.85,0,0,1,2432.39,229.71Z" transform="translate(-2255.77 -151.12)" fill="#333232"/><path d="M2431.25,225.8a1.32,1.32,0,0,1-1.18,1.44,1.31,1.31,0,1,1,1.18-1.44Z" transform="translate(-2255.77 -151.12)" fill="#fff"/><path d="M2469.49,217.09a8.94,8.94,0,0,1,9.78,8l-17.81,1.76A8.94,8.94,0,0,1,2469.49,217.09Z" transform="translate(-2255.77 -151.12)" fill="#5d5d5d"/><path d="M2461.46,226.83,2477,225.3a6.46,6.46,0,0,0-3.35-4.88c-.86-.7-4.28-1.87-8-.2A6.84,6.84,0,0,0,2461.46,226.83Z" transform="translate(-2255.77 -151.12)" fill="#fff"/><path d="M2465.85,226.4l7.93-.79a4.93,4.93,0,0,0-.16-5.19c-.86-.7-4.3-1.86-8-.2A4.88,4.88,0,0,0,2465.85,226.4Z" transform="translate(-2255.77 -151.12)" fill="#333232"/><path d="M2466.2,222.34a1.32,1.32,0,0,0,2.62-.26,1.29,1.29,0,0,0-1.43-1.17A1.31,1.31,0,0,0,2466.2,222.34Z" transform="translate(-2255.77 -151.12)" fill="#fff"/><path d="M2450.41,241.05a13.3,13.3,0,0,1-5.47-.51,5.88,5.88,0,0,0,10.73-1.06A13.4,13.4,0,0,1,2450.41,241.05Z" transform="translate(-2255.77 -151.12)" fill="#ff9045"/><path d="M2404.47,201c-2,10.39,1.51,19.29,6,23.75-.14-1.39,2-19.08,9.81-25.32,13.28,7.6,39.91,5,51.42-5.09,8.88,4.58,14.46,21.51,14.6,22.89,3.55-5.25,5.29-14.67,1.25-24.46,6.33-17.54,7-30.44-11.15-31.79C2447.76,137.59,2378.28,157.73,2404.47,201Z" transform="translate(-2255.77 -151.12)" fill="#222324"/><path d="M2538.1,403.58l-13.48,49.49h-26.33l9.7-46.29-21.24-36.33-8.56,49.37-86.63,13.74,6.7-54.34,15-55.82c3.8-14.13,9.59-23.91,16.14-30.63,12.16-12.59,31-16.68,45.12-13l38.23,35.59Z" transform="translate(-2255.77 -151.12)" fill="#404042"/><path d="M2471.51,279.15c-27.13,33.36-50.56,85.18-50.56,85.18l15.83-74.72C2447.75,280,2457.49,277.09,2471.51,279.15Z" transform="translate(-2255.77 -151.12)" fill="#d3d1d1"/><path d="M2427.13,383a3.49,3.49,0,1,1-3.49-3.49A3.49,3.49,0,0,1,2427.13,383Z" transform="translate(-2255.77 -151.12)" fill="#222324"/><path d="M2423.64,406.78a3.49,3.49,0,1,1-3.49-3.49A3.49,3.49,0,0,1,2423.64,406.78Z" transform="translate(-2255.77 -151.12)" fill="#222324"/><polygon points="216.11 123.22 196.09 131.17 176.07 123.22 176.07 144.41 196.09 136.46 216.11 144.41 216.11 123.22" fill="#222324"/><rect x="191.05" y="127.77" width="10.1" height="12.1" fill="#404042"/></svg>