<svg id="Слой_1" data-name="Слой 1" xmlns="http://www.w3.org/2000/svg" viewBox="0 0 650 511.07"><path d="M1028.29,4560.37l-317,183a85.82,85.82,0,0,1-116.89-31.32l-69.81-120.91a85.83,85.83,0,0,1,31.32-116.89l317-183a85.84,85.84,0,0,1,116.9,31.32l69.81,120.91A85.83,85.83,0,0,1,1028.29,4560.37Z" transform="translate(-450 -4266.72)" fill="#faa91e"/><path d="M1083.17,4294.06l9.52,16.48a54.69,54.69,0,0,1-20.06,74.66L541.52,4691.84a54.69,54.69,0,0,1-74.68-20l-9.52-16.49a54.75,54.75,0,0,1,20-74.72L1008.45,4274A54.74,54.74,0,0,1,1083.17,4294.06Z" transform="translate(-450 -4266.72)" fill="#f28ab8"/><path d="M1083.17,4294.06l3.56,6.17L460.89,4661.56l-3.57-6.17a54.75,54.75,0,0,1,20-74.72L1008.45,4274A54.74,54.74,0,0,1,1083.17,4294.06Z" transform="translate(-450 -4266.72)" fill="#fff" opacity="0.21"/><path d="M954.51,4316.35c-9.44,21.71-26.1,10.8-41.38,5.3-24-8.64-50.51-2.19-59.31,22.07-9.17,25.3-2,62.4-50.39,40.81-20.42-9.11-50.2-3-59.3,22.08-9.52,26.24-3.15,63.33-50.35,40.35-22.92-11.15-50.51-2.19-59.31,22.08-11.41,31.48-1.24,55.77-56.2,41.45-40.4-10.52-61.45,20.34-59.63,62.57.45,10.4,16.58,10.12,16.14-.27-2.1-48.66,22.15-51.31,49-44.17,82.65,22,41.08-68,92-69.21,14.81-.34,26.89,12.25,41.78,11.86,53.77-1.39,20-73.19,67.87-74.29,14.82-.35,26.89,12.24,41.79,11.86,53.91-1.39,19.87-73.63,67.91-74.74,15.16-.35,55.16,32.33,73.59-10.07C972.83,4314.57,958.67,4306.79,954.51,4316.35Z" transform="translate(-450 -4266.72)" fill="#ee4823"/><path d="M1008.73,4426.7l23,39.77a85.84,85.84,0,0,1-31.32,116.9l-317,183a85.82,85.82,0,0,1-116.89-31.32l-23-39.78a85.82,85.82,0,0,1,31.33-116.89l317-183A85.82,85.82,0,0,1,1008.73,4426.7Z" transform="translate(-450 -4266.72)" fill="#fdbb38"/><path d="M1008.73,4426.7l10.49,18.16L554,4713.45l-10.49-18.16a85.82,85.82,0,0,1,31.33-116.89l317-183A85.82,85.82,0,0,1,1008.73,4426.7Z" transform="translate(-450 -4266.72)" fill="#fff" opacity="0.21"/></svg>