<svg id="_15" data-name="15" xmlns="http://www.w3.org/2000/svg" viewBox="0 0 256.93 290.48"><path d="M2423,924.11c-25.35-11-38.93-22-59.84-5.31l13.56,34.74,5.37,48.27h81.82l5.37-48.27,13.56-34.74C2461.89,902.12,2448.31,913.16,2423,924.11Z" transform="translate(-2294.76 -774.41)" fill="#ea2475"/><rect y="275.18" width="256.93" height="15.31" fill="#b24800"/><polygon points="217 226.09 39.93 226.09 0 275.18 256.93 275.18 217 226.09" fill="#d8620b"/><path d="M2469.24,953.54l35.49,61.06s29.21-5.36,9.59-47.45c-11.65-25-21.05-40-31.52-48.35Z" transform="translate(-2294.76 -774.41)" fill="#b7044e"/><path d="M2504.73,1014.6H2404.55V994.45s55.57-8.39,85.09-11C2489.64,983.46,2513.87,998.64,2504.73,1014.6Z" transform="translate(-2294.76 -774.41)" fill="#b7044e"/><path d="M2376.68,953.54l-35.48,61.06s-29.21-5.36-9.59-47.45c11.65-25,21-40,31.51-48.35Z" transform="translate(-2294.76 -774.41)" fill="#d30b58"/><path d="M2458.47,1004s14.52,7.4,18.54,8.37c-2.85,6.62-15.06.51-22-3.4Z" transform="translate(-2294.76 -774.41)" fill="#f79c39"/><path d="M2430.53,1003.59l10.84-4.56,17.23,2.78s7.86,10,14.91,13c-1.74,6.61-9.15,1.34-20.24-4.74,0,0-7.23,8.54-22.74,1.64Z" transform="translate(-2294.76 -774.41)" fill="#fcb560"/><path d="M2341.2,1014.6h100.17V994.45s-55.56-8.39-85.09-11C2356.28,983.46,2332.06,998.64,2341.2,1014.6Z" transform="translate(-2294.76 -774.41)" fill="#d30b58"/><path d="M2379.73,1031.44s3.73,9.67,11.18,9.67h75c7.45,0,11.18-9.67,11.18-9.67Z" transform="translate(-2294.76 -774.41)" fill="#97bfce"/><path d="M2478.71,1031.44H2378c-1.86,0-1.76-5.06,0-5.06h100.67C2480.35,1026.38,2480.79,1031.44,2478.71,1031.44Z" transform="translate(-2294.76 -774.41)" fill="#c1e5e5"/><path d="M2515.54,986.34h-36.27a18.12,18.12,0,0,1,1-5.17h34.23A18.12,18.12,0,0,1,2515.54,986.34Z" transform="translate(-2294.76 -774.41)" fill="#c1e5e5"/><rect x="199.08" y="222.85" width="7.12" height="32.6" fill="#c1e5e5"/><polygon points="210.14 261.31 195.14 261.31 199.08 255.45 206.2 255.45 210.14 261.31" fill="#c1e5e5"/><path d="M2497.4,1005.39a18.16,18.16,0,0,1-18.13-19h36.27A18.16,18.16,0,0,1,2497.4,1005.39Z" transform="translate(-2294.76 -774.41)" fill="#ce0d0d"/><path d="M2443.51,913.35h-40.46l-21.69,46.39c18.51,19.9,64.95,20.31,83.84,0Z" transform="translate(-2294.76 -774.41)" fill="#71bddb"/><path d="M2431.82,911.45h-17.08l-14.43,63.63c12.08,11.25,33.06,12,45.94,0Z" transform="translate(-2294.76 -774.41)" fill="#c1e5e5"/><path d="M2472.21,839.41v40.67s-5.72,43.21-48.93,43.21c-28.05,0-46-20.66-48.93-43.21V839.41c8.26-21,48.93-34.31,48.93-34.31S2464,818.44,2472.21,839.41Z" transform="translate(-2294.76 -774.41)" fill="#fcb560"/><path d="M2369.9,854.79s-13.34-3.82-9.53,13.34c0,0,1.93,12.08,16.53,12.08Z" transform="translate(-2294.76 -774.41)" fill="#fcb560"/><path d="M2476.05,854.88s13.34-3.81,9.53,13.35c0,0-1.93,12.07-16.53,12.07Z" transform="translate(-2294.76 -774.41)" fill="#fcb560"/><path d="M2405,869a5.07,5.07,0,1,1-5.07-5.07A5.07,5.07,0,0,1,2405,869Z" transform="translate(-2294.76 -774.41)" fill="#fff"/><path d="M2403.05,870.17a3.14,3.14,0,1,1-3.14-3.14A3.14,3.14,0,0,1,2403.05,870.17Z" transform="translate(-2294.76 -774.41)" fill="#282f39"/><path d="M2451.74,869a5.07,5.07,0,1,1-5.07-5.07A5.07,5.07,0,0,1,2451.74,869Z" transform="translate(-2294.76 -774.41)" fill="#fff"/><path d="M2449.8,870.17a3.14,3.14,0,1,1-3.13-3.14A3.13,3.13,0,0,1,2449.8,870.17Z" transform="translate(-2294.76 -774.41)" fill="#282f39"/><path d="M2435.59,899.59a12.14,12.14,0,0,1-.9,4.64h-23.48a12.33,12.33,0,0,1-.9-4.64Z" transform="translate(-2294.76 -774.41)" fill="#fff"/><path d="M2434.69,904.23a12.62,12.62,0,0,1-23.48,0Z" transform="translate(-2294.76 -774.41)" fill="#e0450e"/><path d="M2423,885a23.41,23.41,0,0,1-7.78-1.27,8.06,8.06,0,0,0,15.57,0A23.47,23.47,0,0,1,2423,885Z" transform="translate(-2294.76 -774.41)" fill="#f79c39"/><path d="M2423.28,785.83c-24.85-9.75-89.86,10.12-56,69.48,0,0-3.86,16.72,8.36,19.94,0,0-1.28-19.94,9.65-29.59l20.58-7.72h34.88l20.58,7.72c10.93,9.65,9.65,29.59,9.65,29.59,12.22-3.22,8.36-19.94,8.36-19.94C2513.15,796,2448.13,776.08,2423.28,785.83Z" transform="translate(-2294.76 -774.41)" fill="#3c1a0e"/><path d="M2394.87,785.06s13.75-13.48,44.11-10.1c0,0-8.67,8.24-10.15,14.24Z" transform="translate(-2294.76 -774.41)" fill="#3c1a0e"/><path d="M2423.22,785.19s6.32-6.23,26.18-7.08l-4,13Z" transform="translate(-2294.76 -774.41)" fill="#3c1a0e"/><path d="M2394.87,833.06s3.7,17.2,47.52,16.09c-6.09-5.6-3.82-14.41-1.41-19.79Z" transform="translate(-2294.76 -774.41)" fill="#3c1a0e"/></svg>