<svg id="Слой_1" data-name="Слой 1" xmlns="http://www.w3.org/2000/svg" viewBox="0 0 650 693.43"><path d="M974.33,592.84c-109.68-18.42-321.5-20-430.66-1.54-22.09,3.73-71,26.45-23.57,108.59l-4.94,316.23a68.07,68.07,0,0,0,68.06,69.13H935.63a68.06,68.06,0,0,0,68-69.13l-4.94-316.23c39.85-69.08,10.79-101.14-24.41-107Z" transform="translate(-450 -410.03)" fill="#793518"/><path d="M974.33,529.62c-109.68-18.42-321.5-20-430.66-1.55-22.09,3.74-71,26.46-23.57,108.6L515.16,952.9A68.07,68.07,0,0,0,583.22,1022H935.63a68.06,68.06,0,0,0,68-69.13l-4.94-316.23c39.85-69.08,10.79-101.15-24.41-107Z" transform="translate(-450 -410.03)" fill="#d5aa60"/><path d="M634.69,962.22l184,141.25,44-141.25ZM803,1064.92a15.73,15.73,0,1,1,15.73-15.72A15.72,15.72,0,0,1,803,1064.92Z" transform="translate(-450 -410.03)" fill="#f6c914"/><path d="M492.48,1002.34s93.26-18.53,163,6.15L547.38,748.2S386.5,872.88,492.48,1002.34Z" transform="translate(-450 -410.03)" fill="#f6c914"/><path d="M617.75,592.22a83.88,83.88,0,1,1-83.87-83.88A83.87,83.87,0,0,1,617.75,592.22Z" transform="translate(-450 -410.03)" fill="#b0d13b"/><path d="M599.58,592.22a65.71,65.71,0,1,1-65.7-65.71A65.71,65.71,0,0,1,599.58,592.22Z" transform="translate(-450 -410.03)" fill="#dbe12b"/><rect x="50.21" y="58.45" width="517.34" height="63.2" fill="#a94b25"/><path d="M692.88,924c-127.79-69.26-156.35,128.06-41.36,158.13S838.21,926.21,692.88,924Z" transform="translate(-450 -410.03)" fill="#ca2027"/><path d="M687.35,945.12c-92.84-50.31-113.58,93.05-30,114.89S793,946.71,687.35,945.12Z" transform="translate(-450 -410.03)" fill="#ef5123"/><path d="M659.21,1052.83c-4.11-1.08-5.69-8.58-3.56-16.74s7.19-13.92,11.3-12.85,5.67,8.57,3.55,16.74S663.31,1053.9,659.21,1052.83Z" transform="translate(-450 -410.03)" fill="#f7e8c4"/><path d="M660.91,960c-2.18,3.66-9.82,3.07-17.06-1.25s-11.35-10.82-9.17-14.46,9.81-3.06,17.06,1.27S663.09,956.34,660.91,960Z" transform="translate(-450 -410.03)" fill="#f7e8c4"/><path d="M649.52,987.52c-1.19,4.06-8.71,5.48-16.84,3.14s-13.72-7.52-12.57-11.6,8.72-5.49,16.84-3.14S650.67,983.44,649.52,987.52Z" transform="translate(-450 -410.03)" fill="#f7e8c4"/><path d="M651.57,1010.5c1.38,4-4,9.48-12,12.22s-15.57,1.68-17-2.34,4-9.48,12-12.21S650.22,1006.48,651.57,1010.5Z" transform="translate(-450 -410.03)" fill="#f7e8c4"/><path d="M703.07,971.44c.1,4.25,7,7.49,15.49,7.24s15.19-3.87,15.07-8.09-7.07-7.5-15.49-7.27S703,967.2,703.07,971.44Z" transform="translate(-450 -410.03)" fill="#f7e8c4"/><path d="M699.52,1001c-1,4.13,4.9,9.05,13.11,11s15.69.17,16.67-4-4.9-9-13.14-11S700.48,996.9,699.52,1001Z" transform="translate(-450 -410.03)" fill="#f7e8c4"/><path d="M686.47,1020c-3.14,2.84-1.16,10.23,4.49,16.54s12.75,9.09,15.92,6.25,1.15-10.22-4.47-16.51S689.65,1017.22,686.47,1020Z" transform="translate(-450 -410.03)" fill="#f7e8c4"/><path d="M566.74,635.88C439,566.61,410.39,763.94,525.38,794S712.07,638.05,566.74,635.88Z" transform="translate(-450 -410.03)" fill="#ca2027"/><path d="M561.21,657c-92.84-50.3-113.58,93-30,114.9S666.82,658.54,561.21,657Z" transform="translate(-450 -410.03)" fill="#ef5123"/><path d="M533.06,764.66c-4.1-1.08-5.68-8.58-3.56-16.73s7.2-13.93,11.31-12.86,5.66,8.58,3.55,16.74S537.17,765.74,533.06,764.66Z" transform="translate(-450 -410.03)" fill="#f7e8c4"/><path d="M534.77,671.82c-2.18,3.65-9.82,3.07-17.06-1.26s-11.35-10.82-9.17-14.46,9.81-3.06,17.06,1.27S536.94,668.17,534.77,671.82Z" transform="translate(-450 -410.03)" fill="#f7e8c4"/><path d="M523.37,699.35c-1.18,4.07-8.71,5.48-16.83,3.14S492.82,695,494,690.9s8.72-5.5,16.84-3.15S524.53,695.27,523.37,699.35Z" transform="translate(-450 -410.03)" fill="#f7e8c4"/><path d="M525.43,722.33c1.38,4-4,9.49-12,12.22s-15.57,1.68-17-2.34,4-9.48,12-12.21S524.07,718.31,525.43,722.33Z" transform="translate(-450 -410.03)" fill="#f7e8c4"/><path d="M576.92,683.27c.11,4.25,7.05,7.49,15.5,7.25s15.18-3.88,15.07-8.1-7.07-7.5-15.5-7.26S576.81,679,576.92,683.27Z" transform="translate(-450 -410.03)" fill="#f7e8c4"/><path d="M573.38,712.85c-1,4.13,4.89,9,13.11,11s15.68.16,16.66-4-4.9-9-13.13-11S574.34,708.73,573.38,712.85Z" transform="translate(-450 -410.03)" fill="#f7e8c4"/><path d="M560.32,731.87c-3.13,2.84-1.15,10.23,4.49,16.54s12.76,9.09,15.92,6.25,1.16-10.22-4.47-16.51S563.5,729.06,560.32,731.87Z" transform="translate(-450 -410.03)" fill="#f7e8c4"/><path d="M999.21,548.8l3.09,198.07c45.07,4.48,51.18-67.5,51.12-69.3-.58-19.94,20.09-21.19,31.4-32.48,19.53-19.48-.14-41,.74-63.8C1088.21,512.57,1055,508.83,999.21,548.8Z" transform="translate(-450 -410.03)" fill="#b0d13b"/><path d="M805.48,930,568,933.7c-5.38,54,80.94,61.37,83.1,61.31,23.91-.7,25.4,24.08,38.94,37.64,23.36,23.42,49.19-.16,76.5.89C848.92,1036.72,853.42,996.94,805.48,930Z" transform="translate(-450 -410.03)" fill="#a6ca38"/><path d="M999,586.69V795.07c42.84,4.26,26.5-67.88,26.45-69.58-.55-19,19.09-20.14,29.83-30.87,14.26-14.21,9.23-25.59,2.36-41.87-7.55-17.87,12.81-30.34,17.32-46.23C1082.58,579.51,1044.51,554.07,999,586.69Z" transform="translate(-450 -410.03)" fill="#dbe12b"/><path d="M1025.36,959.44A100.43,100.43,0,1,1,924.93,859,100.43,100.43,0,0,1,1025.36,959.44Z" transform="translate(-450 -410.03)" fill="#c51f4e"/><path d="M666.15,874.69A100.43,100.43,0,1,1,565.72,774.26,100.43,100.43,0,0,1,666.15,874.69Z" transform="translate(-450 -410.03)" fill="#c51f4e"/><path d="M940.18,1028.62a7.63,7.63,0,1,1-7.63-7.62A7.63,7.63,0,0,1,940.18,1028.62Z" transform="translate(-450 -410.03)" fill="#e4a2c5"/><path d="M1006.11,951.3a8.13,8.13,0,1,1-8.13-8.13A8.14,8.14,0,0,1,1006.11,951.3Z" transform="translate(-450 -410.03)" fill="#e4a2c5"/><path d="M987.31,1006a7.12,7.12,0,1,1-7.12-7.12A7.12,7.12,0,0,1,987.31,1006Z" transform="translate(-450 -410.03)" fill="#e4a2c5"/><path d="M916.24,1009a14.11,14.11,0,1,1-14.11-14.11A14.11,14.11,0,0,1,916.24,1009Z" transform="translate(-450 -410.03)" fill="#e4a2c5"/><path d="M506.57,853.11a10,10,0,1,1-10-10A10,10,0,0,1,506.57,853.11Z" transform="translate(-450 -410.03)" fill="#e4a2c5"/><path d="M508,824.12a4,4,0,1,1-3.95-4A4,4,0,0,1,508,824.12Z" transform="translate(-450 -410.03)" fill="#e4a2c5"/><path d="M519.15,898.49a12.67,12.67,0,1,1-12.66-12.66A12.66,12.66,0,0,1,519.15,898.49Z" transform="translate(-450 -410.03)" fill="#e4a2c5"/><path d="M1061.1,701S968.42,722.2,898,699.56l115.66,257S1170.81,827.29,1061.1,701Zm-34.34,119a18.78,18.78,0,1,1,26.46,2.2A18.77,18.77,0,0,1,1026.76,819.92Zm19.59,58.43a15.27,15.27,0,1,1,15.27-15.27A15.27,15.27,0,0,1,1046.35,878.35Zm12.19-104.12a12.19,12.19,0,1,1,12.18-12.18A12.18,12.18,0,0,1,1058.54,774.23Z" transform="translate(-450 -410.03)" fill="#f6c914"/><path d="M974.33,487.87c-109.68-18.42-321.5-20-430.66-1.54-22.09,3.73-71,26.46-23.57,108.59l-4.94,316.23a68.07,68.07,0,0,0,68.06,69.13H935.63a68.06,68.06,0,0,0,68-69.13l-4.94-316.23c39.85-69.07,10.79-101.14-24.41-107Z" transform="translate(-450 -410.03)" fill="#a94b25"/><path d="M974.33,424.65c-109.68-18.42-321.5-20-430.66-1.54-22.09,3.73-71,26.45-23.57,108.59l-4.94,316.23a68.07,68.07,0,0,0,68.06,69.13H935.63a68.06,68.06,0,0,0,68-69.13L998.74,531.7c39.85-69.07,10.79-101.14-24.41-107.05Z" transform="translate(-450 -410.03)" fill="#eac885"/><path d="M771.54,843.14a11.41,11.41,0,1,1-11.41-11.41A11.41,11.41,0,0,1,771.54,843.14Z" transform="translate(-450 -410.03)" fill="#d5aa60"/><path d="M745.33,470.29a9,9,0,1,1-9-9A9,9,0,0,1,745.33,470.29Z" transform="translate(-450 -410.03)" fill="#d5aa60"/><path d="M862.74,628.05a10.16,10.16,0,1,1-10.16-10.16A10.16,10.16,0,0,1,862.74,628.05Z" transform="translate(-450 -410.03)" fill="#d5aa60"/><path d="M888,756.78A11.74,11.74,0,1,1,876.28,745,11.74,11.74,0,0,1,888,756.78Z" transform="translate(-450 -410.03)" fill="#d5aa60"/><path d="M624.61,752.85a9.14,9.14,0,1,1-9.14-9.14A9.14,9.14,0,0,1,624.61,752.85Z" transform="translate(-450 -410.03)" fill="#d5aa60"/><path d="M598.68,843.14a9.14,9.14,0,1,1-9.14-9.14A9.14,9.14,0,0,1,598.68,843.14Z" transform="translate(-450 -410.03)" fill="#d5aa60"/><path d="M706.13,644.29a14.39,14.39,0,1,1-14.39-14.4A14.38,14.38,0,0,1,706.13,644.29Z" transform="translate(-450 -410.03)" fill="#d5aa60"/><path d="M589.54,500.09a7.91,7.91,0,1,1-7.9-7.91A7.9,7.9,0,0,1,589.54,500.09Z" transform="translate(-450 -410.03)" fill="#d5aa60"/><circle cx="156.34" cy="207.86" r="7.9" fill="#d5aa60"/><path d="M666.27,592.22a7.9,7.9,0,1,1-7.9-7.91A7.9,7.9,0,0,1,666.27,592.22Z" transform="translate(-450 -410.03)" fill="#d5aa60"/><path d="M850.32,658.67a7.91,7.91,0,1,1-7.9-7.9A7.91,7.91,0,0,1,850.32,658.67Z" transform="translate(-450 -410.03)" fill="#d5aa60"/><path d="M914,762a7.91,7.91,0,1,1-7.9-7.91A7.9,7.9,0,0,1,914,762Z" transform="translate(-450 -410.03)" fill="#d5aa60"/><path d="M949.89,828.07a7.9,7.9,0,1,1-7.9-7.9A7.91,7.91,0,0,1,949.89,828.07Z" transform="translate(-450 -410.03)" fill="#d5aa60"/><path d="M808.22,862.8a7.91,7.91,0,1,1-7.9-7.91A7.9,7.9,0,0,1,808.22,862.8Z" transform="translate(-450 -410.03)" fill="#d5aa60"/><path d="M915.55,508a9.48,9.48,0,1,1-9.47-9.47A9.47,9.47,0,0,1,915.55,508Z" transform="translate(-450 -410.03)" fill="#d5aa60"/></svg>